%TF.GenerationSoftware,KiCad,Pcbnew,(5.1.8)-1*%
%TF.CreationDate,2021-03-07T17:47:24+01:00*%
%TF.ProjectId,splitboard,73706c69-7462-46f6-9172-642e6b696361,rev?*%
%TF.SameCoordinates,Original*%
%TF.FileFunction,Copper,L2,Bot*%
%TF.FilePolarity,Positive*%
%FSLAX46Y46*%
G04 Gerber Fmt 4.6, Leading zero omitted, Abs format (unit mm)*
G04 Created by KiCad (PCBNEW (5.1.8)-1) date 2021-03-07 17:47:24*
%MOMM*%
%LPD*%
G01*
G04 APERTURE LIST*
%TA.AperFunction,SMDPad,CuDef*%
%ADD10R,1.850000X0.450000*%
%TD*%
%TA.AperFunction,SMDPad,CuDef*%
%ADD11R,0.450000X1.850000*%
%TD*%
%TA.AperFunction,ComponentPad*%
%ADD12C,2.200000*%
%TD*%
%TA.AperFunction,ComponentPad*%
%ADD13R,1.524000X1.524000*%
%TD*%
%TA.AperFunction,ComponentPad*%
%ADD14C,1.524000*%
%TD*%
%TA.AperFunction,ComponentPad*%
%ADD15R,1.700000X1.700000*%
%TD*%
%TA.AperFunction,ComponentPad*%
%ADD16O,1.700000X1.700000*%
%TD*%
%TA.AperFunction,SMDPad,CuDef*%
%ADD17R,0.900000X1.200000*%
%TD*%
%TA.AperFunction,SMDPad,CuDef*%
%ADD18C,1.000000*%
%TD*%
%TA.AperFunction,ComponentPad*%
%ADD19R,2.000000X2.000000*%
%TD*%
%TA.AperFunction,ComponentPad*%
%ADD20C,2.000000*%
%TD*%
%TA.AperFunction,ComponentPad*%
%ADD21R,3.000000X2.500000*%
%TD*%
%TA.AperFunction,ComponentPad*%
%ADD22C,1.200000*%
%TD*%
%TA.AperFunction,ComponentPad*%
%ADD23R,2.500000X2.500000*%
%TD*%
%TA.AperFunction,SMDPad,CuDef*%
%ADD24R,2.000000X1.500000*%
%TD*%
%TA.AperFunction,SMDPad,CuDef*%
%ADD25R,1.000000X1.100000*%
%TD*%
%TA.AperFunction,SMDPad,CuDef*%
%ADD26R,1.100000X1.000000*%
%TD*%
%TA.AperFunction,ViaPad*%
%ADD27C,0.800000*%
%TD*%
%TA.AperFunction,Conductor*%
%ADD28C,0.200000*%
%TD*%
%TA.AperFunction,Conductor*%
%ADD29C,0.500000*%
%TD*%
%TA.AperFunction,Conductor*%
%ADD30C,0.250000*%
%TD*%
G04 APERTURE END LIST*
D10*
%TO.P,U5,42*%
%TO.N,GND*%
X40387000Y-65342000D03*
%TO.P,U5,41*%
%TO.N,DEC2*%
X40387000Y-66042000D03*
%TO.P,U5,40*%
%TO.N,Net-(U5-Pad40)*%
X40387000Y-66742000D03*
%TO.P,U5,39*%
%TO.N,/CONNECTED*%
X40387000Y-67442000D03*
%TO.P,U5,38*%
%TO.N,/MODE*%
X40387000Y-68142000D03*
%TO.P,U5,37*%
%TO.N,Net-(U5-Pad37)*%
X40387000Y-68842000D03*
%TO.P,U5,36*%
%TO.N,/SWCLK*%
X40387000Y-69542000D03*
%TO.P,U5,35*%
%TO.N,/4_SWDIO/RST*%
X40387000Y-70242000D03*
%TO.P,U5,34*%
%TO.N,/FCTRYRST*%
X40387000Y-70942000D03*
%TO.P,U5,33*%
%TO.N,Net-(U5-Pad33)*%
X40387000Y-71642000D03*
%TO.P,U5,32*%
%TO.N,Net-(U5-Pad32)*%
X40387000Y-72342000D03*
%TO.P,U5,31*%
%TO.N,Net-(U5-Pad31)*%
X40387000Y-73042000D03*
%TO.P,U5,30*%
%TO.N,Net-(U5-Pad30)*%
X40387000Y-73742000D03*
%TO.P,U5,29*%
%TO.N,Net-(U5-Pad29)*%
X40387000Y-74442000D03*
%TO.P,U5,28*%
%TO.N,Net-(U5-Pad28)*%
X40387000Y-75142000D03*
%TO.P,U5,27*%
%TO.N,Net-(U5-Pad27)*%
X40387000Y-75842000D03*
%TO.P,U5,26*%
%TO.N,Net-(U5-Pad26)*%
X40387000Y-76542000D03*
D11*
%TO.P,U5,25*%
%TO.N,GND*%
X41012000Y-78167000D03*
%TO.P,U5,24*%
%TO.N,Net-(U5-Pad24)*%
X41712000Y-78167000D03*
%TO.P,U5,23*%
%TO.N,Net-(U5-Pad23)*%
X42412000Y-78167000D03*
%TO.P,U5,22*%
%TO.N,Net-(U5-Pad22)*%
X43112000Y-78167000D03*
%TO.P,U5,21*%
%TO.N,Net-(U5-Pad21)*%
X43812000Y-78167000D03*
%TO.P,U5,20*%
%TO.N,Net-(U5-Pad20)*%
X44512000Y-78167000D03*
%TO.P,U5,19*%
%TO.N,Net-(U5-Pad19)*%
X45212000Y-78167000D03*
%TO.P,U5,18*%
%TO.N,Net-(U5-Pad18)*%
X45912000Y-78167000D03*
%TO.P,U5,17*%
%TO.N,Net-(U5-Pad17)*%
X46612000Y-78167000D03*
%TO.P,U5,16*%
%TO.N,GND*%
X47312000Y-78167000D03*
%TO.P,U5,15*%
%TO.N,DCC*%
X48012000Y-78167000D03*
%TO.P,U5,14*%
%TO.N,+3V3*%
X48712000Y-78167000D03*
%TO.P,U5,13*%
%TO.N,GND*%
X49412000Y-78167000D03*
D10*
%TO.P,U5,12*%
%TO.N,Net-(U5-Pad12)*%
X50037000Y-76542000D03*
%TO.P,U5,11*%
%TO.N,Net-(U5-Pad11)*%
X50037000Y-75842000D03*
%TO.P,U5,10*%
%TO.N,Net-(U5-Pad10)*%
X50037000Y-75142000D03*
%TO.P,U5,9*%
%TO.N,Net-(U5-Pad9)*%
X50037000Y-74442000D03*
%TO.P,U5,8*%
%TO.N,/7_BLE_IRQ*%
X50037000Y-73742000D03*
%TO.P,U5,7*%
%TO.N,/8_BLE_CS*%
X50037000Y-73042000D03*
%TO.P,U5,6*%
%TO.N,/MOSI*%
X50037000Y-72342000D03*
%TO.P,U5,5*%
%TO.N,/MISO*%
X50037000Y-71642000D03*
%TO.P,U5,4*%
%TO.N,/SCK*%
X50037000Y-70942000D03*
%TO.P,U5,3*%
%TO.N,+3V3*%
X50037000Y-70242000D03*
%TO.P,U5,2*%
%TO.N,GND*%
X50037000Y-66042000D03*
%TO.P,U5,1*%
X50037000Y-65342000D03*
%TD*%
D12*
%TO.P,SW44,1*%
%TO.N,Net-(SW41-Pad1)*%
X215900000Y-153035000D03*
%TO.P,SW44,2*%
%TO.N,Net-(SW28-Pad2)*%
X222250000Y-150495000D03*
D13*
%TO.P,SW44,3*%
%TO.N,gnd1*%
X217170000Y-142875000D03*
D14*
%TO.P,SW44,4*%
%TO.N,Net-(R44-Pad1)*%
X219710000Y-142875000D03*
%TD*%
D12*
%TO.P,SW5,1*%
%TO.N,Net-(SW5-Pad1)*%
X40005000Y-95885000D03*
%TO.P,SW5,2*%
%TO.N,Net-(SW1-Pad2)*%
X46355000Y-93345000D03*
D13*
%TO.P,SW5,3*%
%TO.N,GND*%
X41275000Y-85725000D03*
D14*
%TO.P,SW5,4*%
%TO.N,Net-(R5-Pad1)*%
X43815000Y-85725000D03*
%TD*%
D12*
%TO.P,SW1,1*%
%TO.N,Net-(SW1-Pad1)*%
X20955000Y-95885000D03*
%TO.P,SW1,2*%
%TO.N,Net-(SW1-Pad2)*%
X27305000Y-93345000D03*
D13*
%TO.P,SW1,3*%
%TO.N,GND*%
X22225000Y-85725000D03*
D14*
%TO.P,SW1,4*%
%TO.N,Net-(R1-Pad1)*%
X24765000Y-85725000D03*
%TD*%
D12*
%TO.P,SW22,1*%
%TO.N,Net-(SW21-Pad1)*%
X116205000Y-114935000D03*
%TO.P,SW22,2*%
%TO.N,Net-(SW10-Pad2)*%
X122555000Y-112395000D03*
D13*
%TO.P,SW22,3*%
%TO.N,GND*%
X117475000Y-104775000D03*
D14*
%TO.P,SW22,4*%
%TO.N,Net-(R22-Pad1)*%
X120015000Y-104775000D03*
%TD*%
D12*
%TO.P,SW3,1*%
%TO.N,Net-(SW1-Pad1)*%
X20955000Y-133985000D03*
%TO.P,SW3,2*%
%TO.N,Net-(SW11-Pad2)*%
X27305000Y-131445000D03*
D13*
%TO.P,SW3,3*%
%TO.N,GND*%
X22225000Y-123825000D03*
D14*
%TO.P,SW3,4*%
%TO.N,Net-(R3-Pad1)*%
X24765000Y-123825000D03*
%TD*%
D12*
%TO.P,SW24,1*%
%TO.N,Net-(SW21-Pad1)*%
X116205000Y-153035000D03*
%TO.P,SW24,2*%
%TO.N,Net-(SW12-Pad2)*%
X122555000Y-150495000D03*
D13*
%TO.P,SW24,3*%
%TO.N,GND*%
X117475000Y-142875000D03*
D14*
%TO.P,SW24,4*%
%TO.N,Net-(R24-Pad1)*%
X120015000Y-142875000D03*
%TD*%
D12*
%TO.P,SW19,1*%
%TO.N,Net-(SW17-Pad1)*%
X97155000Y-133985000D03*
%TO.P,SW19,2*%
%TO.N,Net-(SW11-Pad2)*%
X103505000Y-131445000D03*
D13*
%TO.P,SW19,3*%
%TO.N,GND*%
X98425000Y-123825000D03*
D14*
%TO.P,SW19,4*%
%TO.N,Net-(R19-Pad1)*%
X100965000Y-123825000D03*
%TD*%
D12*
%TO.P,SW15,1*%
%TO.N,Net-(SW13-Pad1)*%
X78105000Y-133985000D03*
%TO.P,SW15,2*%
%TO.N,Net-(SW11-Pad2)*%
X84455000Y-131445000D03*
D13*
%TO.P,SW15,3*%
%TO.N,GND*%
X79375000Y-123825000D03*
D14*
%TO.P,SW15,4*%
%TO.N,Net-(R15-Pad1)*%
X81915000Y-123825000D03*
%TD*%
D12*
%TO.P,SW47,1*%
%TO.N,Net-(SW45-Pad1)*%
X229870000Y-133985000D03*
%TO.P,SW47,2*%
%TO.N,Net-(SW27-Pad2)*%
X236220000Y-131445000D03*
D13*
%TO.P,SW47,3*%
%TO.N,gnd1*%
X231140000Y-123825000D03*
D14*
%TO.P,SW47,4*%
%TO.N,Net-(R47-Pad1)*%
X233680000Y-123825000D03*
%TD*%
D12*
%TO.P,SW46,1*%
%TO.N,Net-(SW45-Pad1)*%
X229870000Y-114935000D03*
%TO.P,SW46,2*%
%TO.N,Net-(SW26-Pad2)*%
X236220000Y-112395000D03*
D13*
%TO.P,SW46,3*%
%TO.N,gnd1*%
X231140000Y-104775000D03*
D14*
%TO.P,SW46,4*%
%TO.N,Net-(R46-Pad1)*%
X233680000Y-104775000D03*
%TD*%
D12*
%TO.P,SW45,1*%
%TO.N,Net-(SW45-Pad1)*%
X229870000Y-95885000D03*
%TO.P,SW45,2*%
%TO.N,Net-(SW25-Pad2)*%
X236220000Y-93345000D03*
D13*
%TO.P,SW45,3*%
%TO.N,gnd1*%
X231140000Y-85725000D03*
D14*
%TO.P,SW45,4*%
%TO.N,Net-(R45-Pad1)*%
X233680000Y-85725000D03*
%TD*%
D12*
%TO.P,SW43,1*%
%TO.N,Net-(SW41-Pad1)*%
X210820000Y-133985000D03*
%TO.P,SW43,2*%
%TO.N,Net-(SW27-Pad2)*%
X217170000Y-131445000D03*
D13*
%TO.P,SW43,3*%
%TO.N,gnd1*%
X212090000Y-123825000D03*
D14*
%TO.P,SW43,4*%
%TO.N,Net-(R43-Pad1)*%
X214630000Y-123825000D03*
%TD*%
D12*
%TO.P,SW42,1*%
%TO.N,Net-(SW41-Pad1)*%
X210820000Y-114935000D03*
%TO.P,SW42,2*%
%TO.N,Net-(SW26-Pad2)*%
X217170000Y-112395000D03*
D13*
%TO.P,SW42,3*%
%TO.N,gnd1*%
X212090000Y-104775000D03*
D14*
%TO.P,SW42,4*%
%TO.N,Net-(R42-Pad1)*%
X214630000Y-104775000D03*
%TD*%
D12*
%TO.P,SW41,1*%
%TO.N,Net-(SW41-Pad1)*%
X210820000Y-95885000D03*
%TO.P,SW41,2*%
%TO.N,Net-(SW25-Pad2)*%
X217170000Y-93345000D03*
D13*
%TO.P,SW41,3*%
%TO.N,gnd1*%
X212090000Y-85725000D03*
D14*
%TO.P,SW41,4*%
%TO.N,Net-(R41-Pad1)*%
X214630000Y-85725000D03*
%TD*%
D12*
%TO.P,SW40,1*%
%TO.N,Net-(SW37-Pad1)*%
X191770000Y-153035000D03*
%TO.P,SW40,2*%
%TO.N,Net-(SW28-Pad2)*%
X198120000Y-150495000D03*
D13*
%TO.P,SW40,3*%
%TO.N,gnd1*%
X193040000Y-142875000D03*
D14*
%TO.P,SW40,4*%
%TO.N,Net-(R40-Pad1)*%
X195580000Y-142875000D03*
%TD*%
D12*
%TO.P,SW39,1*%
%TO.N,Net-(SW37-Pad1)*%
X191770000Y-133985000D03*
%TO.P,SW39,2*%
%TO.N,Net-(SW27-Pad2)*%
X198120000Y-131445000D03*
D13*
%TO.P,SW39,3*%
%TO.N,gnd1*%
X193040000Y-123825000D03*
D14*
%TO.P,SW39,4*%
%TO.N,Net-(R39-Pad1)*%
X195580000Y-123825000D03*
%TD*%
D12*
%TO.P,SW38,1*%
%TO.N,Net-(SW37-Pad1)*%
X191770000Y-114935000D03*
%TO.P,SW38,2*%
%TO.N,Net-(SW26-Pad2)*%
X198120000Y-112395000D03*
D13*
%TO.P,SW38,3*%
%TO.N,gnd1*%
X193040000Y-104775000D03*
D14*
%TO.P,SW38,4*%
%TO.N,Net-(R38-Pad1)*%
X195580000Y-104775000D03*
%TD*%
D12*
%TO.P,SW37,1*%
%TO.N,Net-(SW37-Pad1)*%
X191770000Y-95885000D03*
%TO.P,SW37,2*%
%TO.N,Net-(SW25-Pad2)*%
X198120000Y-93345000D03*
D13*
%TO.P,SW37,3*%
%TO.N,gnd1*%
X193040000Y-85725000D03*
D14*
%TO.P,SW37,4*%
%TO.N,Net-(R37-Pad1)*%
X195580000Y-85725000D03*
%TD*%
D12*
%TO.P,SW36,1*%
%TO.N,Net-(SW33-Pad1)*%
X172720000Y-153035000D03*
%TO.P,SW36,2*%
%TO.N,Net-(SW28-Pad2)*%
X179070000Y-150495000D03*
D13*
%TO.P,SW36,3*%
%TO.N,gnd1*%
X173990000Y-142875000D03*
D14*
%TO.P,SW36,4*%
%TO.N,Net-(R36-Pad1)*%
X176530000Y-142875000D03*
%TD*%
D12*
%TO.P,SW35,1*%
%TO.N,Net-(SW33-Pad1)*%
X172720000Y-133985000D03*
%TO.P,SW35,2*%
%TO.N,Net-(SW27-Pad2)*%
X179070000Y-131445000D03*
D13*
%TO.P,SW35,3*%
%TO.N,gnd1*%
X173990000Y-123825000D03*
D14*
%TO.P,SW35,4*%
%TO.N,Net-(R35-Pad1)*%
X176530000Y-123825000D03*
%TD*%
D12*
%TO.P,SW34,1*%
%TO.N,Net-(SW33-Pad1)*%
X172720000Y-114935000D03*
%TO.P,SW34,2*%
%TO.N,Net-(SW26-Pad2)*%
X179070000Y-112395000D03*
D13*
%TO.P,SW34,3*%
%TO.N,gnd1*%
X173990000Y-104775000D03*
D14*
%TO.P,SW34,4*%
%TO.N,Net-(R34-Pad1)*%
X176530000Y-104775000D03*
%TD*%
D12*
%TO.P,SW33,1*%
%TO.N,Net-(SW33-Pad1)*%
X172720000Y-95885000D03*
%TO.P,SW33,2*%
%TO.N,Net-(SW25-Pad2)*%
X179070000Y-93345000D03*
D13*
%TO.P,SW33,3*%
%TO.N,gnd1*%
X173990000Y-85725000D03*
D14*
%TO.P,SW33,4*%
%TO.N,Net-(R33-Pad1)*%
X176530000Y-85725000D03*
%TD*%
D12*
%TO.P,SW32,1*%
%TO.N,Net-(SW29-Pad1)*%
X153670000Y-153035000D03*
%TO.P,SW32,2*%
%TO.N,Net-(SW28-Pad2)*%
X160020000Y-150495000D03*
D13*
%TO.P,SW32,3*%
%TO.N,gnd1*%
X154940000Y-142875000D03*
D14*
%TO.P,SW32,4*%
%TO.N,Net-(R32-Pad1)*%
X157480000Y-142875000D03*
%TD*%
D12*
%TO.P,SW31,1*%
%TO.N,Net-(SW29-Pad1)*%
X153670000Y-133985000D03*
%TO.P,SW31,2*%
%TO.N,Net-(SW27-Pad2)*%
X160020000Y-131445000D03*
D13*
%TO.P,SW31,3*%
%TO.N,gnd1*%
X154940000Y-123825000D03*
D14*
%TO.P,SW31,4*%
%TO.N,Net-(R31-Pad1)*%
X157480000Y-123825000D03*
%TD*%
D12*
%TO.P,SW30,1*%
%TO.N,Net-(SW29-Pad1)*%
X153670000Y-114935000D03*
%TO.P,SW30,2*%
%TO.N,Net-(SW26-Pad2)*%
X160020000Y-112395000D03*
D13*
%TO.P,SW30,3*%
%TO.N,gnd1*%
X154940000Y-104775000D03*
D14*
%TO.P,SW30,4*%
%TO.N,Net-(R30-Pad1)*%
X157480000Y-104775000D03*
%TD*%
D12*
%TO.P,SW29,1*%
%TO.N,Net-(SW29-Pad1)*%
X153670000Y-95885000D03*
%TO.P,SW29,2*%
%TO.N,Net-(SW25-Pad2)*%
X160020000Y-93345000D03*
D13*
%TO.P,SW29,3*%
%TO.N,gnd1*%
X154940000Y-85725000D03*
D14*
%TO.P,SW29,4*%
%TO.N,Net-(R29-Pad1)*%
X157480000Y-85725000D03*
%TD*%
D12*
%TO.P,SW28,1*%
%TO.N,Net-(SW25-Pad1)*%
X134620000Y-153035000D03*
%TO.P,SW28,2*%
%TO.N,Net-(SW28-Pad2)*%
X140970000Y-150495000D03*
D13*
%TO.P,SW28,3*%
%TO.N,gnd1*%
X135890000Y-142875000D03*
D14*
%TO.P,SW28,4*%
%TO.N,Net-(R28-Pad1)*%
X138430000Y-142875000D03*
%TD*%
D12*
%TO.P,SW27,1*%
%TO.N,Net-(SW25-Pad1)*%
X134620000Y-133985000D03*
%TO.P,SW27,2*%
%TO.N,Net-(SW27-Pad2)*%
X140970000Y-131445000D03*
D13*
%TO.P,SW27,3*%
%TO.N,gnd1*%
X135890000Y-123825000D03*
D14*
%TO.P,SW27,4*%
%TO.N,Net-(R27-Pad1)*%
X138430000Y-123825000D03*
%TD*%
D12*
%TO.P,SW26,1*%
%TO.N,Net-(SW25-Pad1)*%
X134620000Y-114935000D03*
%TO.P,SW26,2*%
%TO.N,Net-(SW26-Pad2)*%
X140970000Y-112395000D03*
D13*
%TO.P,SW26,3*%
%TO.N,gnd1*%
X135890000Y-104775000D03*
D14*
%TO.P,SW26,4*%
%TO.N,Net-(R26-Pad1)*%
X138430000Y-104775000D03*
%TD*%
D12*
%TO.P,SW25,1*%
%TO.N,Net-(SW25-Pad1)*%
X134620000Y-95885000D03*
%TO.P,SW25,2*%
%TO.N,Net-(SW25-Pad2)*%
X140970000Y-93345000D03*
D13*
%TO.P,SW25,3*%
%TO.N,gnd1*%
X135890000Y-85725000D03*
D14*
%TO.P,SW25,4*%
%TO.N,Net-(R25-Pad1)*%
X138430000Y-85725000D03*
%TD*%
D12*
%TO.P,SW23,1*%
%TO.N,Net-(SW21-Pad1)*%
X116205000Y-133985000D03*
%TO.P,SW23,2*%
%TO.N,Net-(SW11-Pad2)*%
X122555000Y-131445000D03*
D13*
%TO.P,SW23,3*%
%TO.N,GND*%
X117475000Y-123825000D03*
D14*
%TO.P,SW23,4*%
%TO.N,Net-(R23-Pad1)*%
X120015000Y-123825000D03*
%TD*%
D12*
%TO.P,SW21,1*%
%TO.N,Net-(SW21-Pad1)*%
X116205000Y-95885000D03*
%TO.P,SW21,2*%
%TO.N,Net-(SW1-Pad2)*%
X122555000Y-93345000D03*
D13*
%TO.P,SW21,3*%
%TO.N,GND*%
X117475000Y-85725000D03*
D14*
%TO.P,SW21,4*%
%TO.N,Net-(R21-Pad1)*%
X120015000Y-85725000D03*
%TD*%
D12*
%TO.P,SW20,1*%
%TO.N,Net-(SW17-Pad1)*%
X97155000Y-153035000D03*
%TO.P,SW20,2*%
%TO.N,Net-(SW12-Pad2)*%
X103505000Y-150495000D03*
D13*
%TO.P,SW20,3*%
%TO.N,GND*%
X98425000Y-142875000D03*
D14*
%TO.P,SW20,4*%
%TO.N,Net-(R20-Pad1)*%
X100965000Y-142875000D03*
%TD*%
D12*
%TO.P,SW18,1*%
%TO.N,Net-(SW17-Pad1)*%
X97155000Y-114935000D03*
%TO.P,SW18,2*%
%TO.N,Net-(SW10-Pad2)*%
X103505000Y-112395000D03*
D13*
%TO.P,SW18,3*%
%TO.N,GND*%
X98425000Y-104775000D03*
D14*
%TO.P,SW18,4*%
%TO.N,Net-(R18-Pad1)*%
X100965000Y-104775000D03*
%TD*%
D12*
%TO.P,SW17,1*%
%TO.N,Net-(SW17-Pad1)*%
X97155000Y-95885000D03*
%TO.P,SW17,2*%
%TO.N,Net-(SW1-Pad2)*%
X103505000Y-93345000D03*
D13*
%TO.P,SW17,3*%
%TO.N,GND*%
X98425000Y-85725000D03*
D14*
%TO.P,SW17,4*%
%TO.N,Net-(R17-Pad1)*%
X100965000Y-85725000D03*
%TD*%
D12*
%TO.P,SW16,1*%
%TO.N,Net-(SW13-Pad1)*%
X78105000Y-153035000D03*
%TO.P,SW16,2*%
%TO.N,Net-(SW12-Pad2)*%
X84455000Y-150495000D03*
D13*
%TO.P,SW16,3*%
%TO.N,GND*%
X79375000Y-142875000D03*
D14*
%TO.P,SW16,4*%
%TO.N,Net-(R16-Pad1)*%
X81915000Y-142875000D03*
%TD*%
D12*
%TO.P,SW14,1*%
%TO.N,Net-(SW13-Pad1)*%
X78105000Y-114935000D03*
%TO.P,SW14,2*%
%TO.N,Net-(SW10-Pad2)*%
X84455000Y-112395000D03*
D13*
%TO.P,SW14,3*%
%TO.N,GND*%
X79375000Y-104775000D03*
D14*
%TO.P,SW14,4*%
%TO.N,Net-(R14-Pad1)*%
X81915000Y-104775000D03*
%TD*%
D12*
%TO.P,SW13,1*%
%TO.N,Net-(SW13-Pad1)*%
X78105000Y-95885000D03*
%TO.P,SW13,2*%
%TO.N,Net-(SW1-Pad2)*%
X84455000Y-93345000D03*
D13*
%TO.P,SW13,3*%
%TO.N,GND*%
X79375000Y-85725000D03*
D14*
%TO.P,SW13,4*%
%TO.N,Net-(R13-Pad1)*%
X81915000Y-85725000D03*
%TD*%
D12*
%TO.P,SW12,1*%
%TO.N,Net-(SW10-Pad1)*%
X59055000Y-153035000D03*
%TO.P,SW12,2*%
%TO.N,Net-(SW12-Pad2)*%
X65405000Y-150495000D03*
D13*
%TO.P,SW12,3*%
%TO.N,GND*%
X60325000Y-142875000D03*
D14*
%TO.P,SW12,4*%
%TO.N,Net-(R12-Pad1)*%
X62865000Y-142875000D03*
%TD*%
D12*
%TO.P,SW11,1*%
%TO.N,Net-(SW10-Pad1)*%
X59055000Y-133985000D03*
%TO.P,SW11,2*%
%TO.N,Net-(SW11-Pad2)*%
X65405000Y-131445000D03*
D13*
%TO.P,SW11,3*%
%TO.N,GND*%
X60325000Y-123825000D03*
D14*
%TO.P,SW11,4*%
%TO.N,Net-(R11-Pad1)*%
X62865000Y-123825000D03*
%TD*%
D12*
%TO.P,SW10,1*%
%TO.N,Net-(SW10-Pad1)*%
X59055000Y-114935000D03*
%TO.P,SW10,2*%
%TO.N,Net-(SW10-Pad2)*%
X65405000Y-112395000D03*
D13*
%TO.P,SW10,3*%
%TO.N,GND*%
X60325000Y-104775000D03*
D14*
%TO.P,SW10,4*%
%TO.N,Net-(R10-Pad1)*%
X62865000Y-104775000D03*
%TD*%
D12*
%TO.P,SW9,1*%
%TO.N,Net-(SW10-Pad1)*%
X59055000Y-95885000D03*
%TO.P,SW9,2*%
%TO.N,Net-(SW1-Pad2)*%
X65405000Y-93345000D03*
D13*
%TO.P,SW9,3*%
%TO.N,GND*%
X60325000Y-85725000D03*
D14*
%TO.P,SW9,4*%
%TO.N,Net-(R9-Pad1)*%
X62865000Y-85725000D03*
%TD*%
D12*
%TO.P,SW8,1*%
%TO.N,Net-(SW5-Pad1)*%
X34925000Y-153035000D03*
%TO.P,SW8,2*%
%TO.N,Net-(SW12-Pad2)*%
X41275000Y-150495000D03*
D13*
%TO.P,SW8,3*%
%TO.N,GND*%
X36195000Y-142875000D03*
D14*
%TO.P,SW8,4*%
%TO.N,Net-(R8-Pad1)*%
X38735000Y-142875000D03*
%TD*%
D12*
%TO.P,SW7,1*%
%TO.N,Net-(SW5-Pad1)*%
X40005000Y-133985000D03*
%TO.P,SW7,2*%
%TO.N,Net-(SW11-Pad2)*%
X46355000Y-131445000D03*
D13*
%TO.P,SW7,3*%
%TO.N,GND*%
X41275000Y-123825000D03*
D14*
%TO.P,SW7,4*%
%TO.N,Net-(R7-Pad1)*%
X43815000Y-123825000D03*
%TD*%
D12*
%TO.P,SW6,1*%
%TO.N,Net-(SW5-Pad1)*%
X40005000Y-114935000D03*
%TO.P,SW6,2*%
%TO.N,Net-(SW10-Pad2)*%
X46355000Y-112395000D03*
D13*
%TO.P,SW6,3*%
%TO.N,GND*%
X41275000Y-104775000D03*
D14*
%TO.P,SW6,4*%
%TO.N,Net-(R6-Pad1)*%
X43815000Y-104775000D03*
%TD*%
D12*
%TO.P,SW2,1*%
%TO.N,Net-(SW1-Pad1)*%
X20955000Y-114935000D03*
%TO.P,SW2,2*%
%TO.N,Net-(SW10-Pad2)*%
X27305000Y-112395000D03*
D13*
%TO.P,SW2,3*%
%TO.N,GND*%
X22225000Y-104775000D03*
D14*
%TO.P,SW2,4*%
%TO.N,Net-(R2-Pad1)*%
X24765000Y-104775000D03*
%TD*%
D15*
%TO.P,J1,1*%
%TO.N,GND*%
X83058000Y-67246500D03*
D16*
%TO.P,J1,2*%
%TO.N,VBAT*%
X85598000Y-67246500D03*
%TO.P,J1,3*%
%TO.N,+3V3*%
X83058000Y-69786500D03*
%TO.P,J1,4*%
X85598000Y-69786500D03*
%TO.P,J1,5*%
%TO.N,/A0*%
X83058000Y-72326500D03*
%TO.P,J1,6*%
%TO.N,sda*%
X85598000Y-72326500D03*
%TO.P,J1,7*%
%TO.N,/5*%
X83058000Y-74866500D03*
%TO.P,J1,8*%
%TO.N,scl*%
X85598000Y-74866500D03*
%TO.P,J1,9*%
%TO.N,GND*%
X83058000Y-77406500D03*
%TO.P,J1,10*%
X85598000Y-77406500D03*
%TD*%
D17*
%TO.P,R55,1*%
%TO.N,scl*%
X56845200Y-66784400D03*
%TO.P,R55,2*%
%TO.N,+3V3*%
X56845200Y-64584400D03*
%TD*%
%TO.P,R54,1*%
%TO.N,+3V3*%
X53848000Y-64584400D03*
%TO.P,R54,2*%
%TO.N,sda*%
X53848000Y-66784400D03*
%TD*%
D18*
%TO.P,TP2,1*%
%TO.N,sda*%
X79959200Y-69799200D03*
%TD*%
%TO.P,TP1,1*%
%TO.N,scl*%
X77724000Y-73660000D03*
%TD*%
D19*
%TO.P,SW50,A*%
%TO.N,Net-(R48-Pad2)*%
X213360000Y-67945000D03*
D20*
%TO.P,SW50,C*%
%TO.N,gnd1*%
X213360000Y-70445000D03*
%TO.P,SW50,B*%
%TO.N,Net-(R49-Pad2)*%
X213360000Y-72945000D03*
D21*
%TO.P,SW50,MP*%
%TO.N,N/C*%
X220860000Y-64845000D03*
X220860000Y-76045000D03*
%TD*%
D16*
%TO.P,J3,2*%
%TO.N,GND*%
X33782000Y-64770000D03*
D15*
%TO.P,J3,1*%
%TO.N,Net-(J3-Pad1)*%
X33782000Y-62230000D03*
%TD*%
D16*
%TO.P,J2,4*%
%TO.N,sda1*%
X134620000Y-71120000D03*
%TO.P,J2,3*%
%TO.N,scl1*%
X132080000Y-71120000D03*
%TO.P,J2,2*%
%TO.N,gnd1*%
X134620000Y-68580000D03*
D15*
%TO.P,J2,1*%
%TO.N,vcc1*%
X132080000Y-68580000D03*
%TD*%
D22*
%TO.P,X3,SPRT@2*%
%TO.N,GND*%
X64010000Y-63765000D03*
%TO.P,X3,SPRT@1*%
X70610000Y-63765000D03*
D23*
%TO.P,X3,SPRT@3*%
X70910000Y-60965000D03*
%TO.P,X3,SPRT@4*%
X63710000Y-60965000D03*
%TD*%
D24*
%TO.P,TP103,P$1*%
%TO.N,/FCTRYRST*%
X37084000Y-73406000D03*
%TD*%
%TO.P,TP102,P$1*%
%TO.N,/4_SWDIO/RST*%
X37084000Y-71120000D03*
%TD*%
%TO.P,TP101,P$1*%
%TO.N,/SWCLK*%
X37084000Y-68834000D03*
%TD*%
D25*
%TO.P,R106,2*%
%TO.N,GND*%
X75184000Y-61292000D03*
%TO.P,R106,1*%
%TO.N,/9*%
X75184000Y-62992000D03*
%TD*%
D26*
%TO.P,R103,2*%
%TO.N,/9*%
X76874000Y-63754000D03*
%TO.P,R103,1*%
%TO.N,VBAT*%
X78574000Y-63754000D03*
%TD*%
%TO.P,R102,2*%
%TO.N,Net-(R102-Pad2)*%
X82374000Y-61976000D03*
%TO.P,R102,1*%
%TO.N,Net-(CHG1-PadC)*%
X84074000Y-61976000D03*
%TD*%
D25*
%TO.P,C4,2*%
%TO.N,GND*%
X52705000Y-76620000D03*
%TO.P,C4,1*%
%TO.N,+3V3*%
X52705000Y-78320000D03*
%TD*%
D27*
%TO.N,scl*%
X56845200Y-66784400D03*
X45720000Y-81915000D03*
X58420000Y-81980010D03*
%TO.N,sda*%
X55016400Y-68376800D03*
X44449958Y-80645000D03*
X55245000Y-81214990D03*
%TO.N,GND*%
X73609200Y-70459600D03*
X66558500Y-63228277D03*
X67258500Y-60420500D03*
X68758500Y-60420500D03*
X62025000Y-78740018D03*
X72136000Y-76769990D03*
X57365018Y-78739982D03*
%TO.N,scl1*%
X158042869Y-78177137D03*
%TO.N,sda1*%
X158749948Y-77470000D03*
%TO.N,Net-(SW1-Pad1)*%
X20320000Y-83337400D03*
%TO.N,Net-(SW10-Pad1)*%
X30226000Y-83058000D03*
%TO.N,Net-(SW25-Pad1)*%
X140335000Y-84455000D03*
%TO.N,Net-(SW29-Pad1)*%
X147955000Y-84455000D03*
%TO.N,Net-(SW13-Pad1)*%
X34925000Y-84455008D03*
%TO.N,Net-(SW5-Pad1)*%
X24942800Y-83362800D03*
%TO.N,Net-(SW17-Pad1)*%
X32519998Y-72890012D03*
%TO.N,Net-(SW21-Pad1)*%
X33785852Y-72749095D03*
%TO.N,Net-(SW33-Pad1)*%
X158115000Y-83820000D03*
%TO.N,Net-(SW37-Pad1)*%
X177165000Y-83185000D03*
%TO.N,Net-(SW41-Pad1)*%
X163829996Y-80009996D03*
%TO.N,Net-(SW45-Pad1)*%
X165734990Y-80010000D03*
%TO.N,VBAT*%
X78893902Y-63754000D03*
%TO.N,+3V3*%
X45085000Y-75565000D03*
%TO.N,Net-(CHG1-PadC)*%
X85598000Y-61976000D03*
%TO.N,/A0*%
X76835000Y-77470000D03*
X58505743Y-78135002D03*
%TO.N,/5*%
X53949600Y-74828400D03*
%TO.N,/9*%
X54877025Y-74154975D03*
X75895200Y-71018400D03*
X77978000Y-68783200D03*
%TO.N,/8_BLE_CS*%
X54762400Y-73050400D03*
%TO.N,/4_SWDIO/RST*%
X52832004Y-68834000D03*
%TO.N,/MISO*%
X65024000Y-70866000D03*
%TO.N,/MOSI*%
X64135999Y-72340159D03*
%TO.N,/SCK*%
X55016399Y-70459599D03*
%TO.N,Net-(IC1-Pad4)*%
X64535997Y-74852168D03*
X65024000Y-69430000D03*
%TO.N,Net-(IC1-Pad3)*%
X68834000Y-73926002D03*
X67818000Y-68834008D03*
%TO.N,/7_BLE_IRQ*%
X63500000Y-76407766D03*
%TO.N,/MODE*%
X46736000Y-64858000D03*
%TO.N,Net-(R102-Pad2)*%
X82296000Y-64416000D03*
%TO.N,/CONNECTED*%
X44060676Y-64839256D03*
%TO.N,Net-(J3-Pad1)*%
X72143133Y-65903199D03*
%TD*%
D28*
%TO.N,scl*%
X85598000Y-74866500D02*
X84447999Y-73716499D01*
X78487605Y-73716499D02*
X80969501Y-73716499D01*
X78431106Y-73660000D02*
X78487605Y-73716499D01*
X77724000Y-73660000D02*
X78431106Y-73660000D01*
X84447999Y-73716499D02*
X80969501Y-73716499D01*
X45720000Y-81915000D02*
X58354990Y-81915000D01*
X58354990Y-81915000D02*
X58420000Y-81980010D01*
X57495200Y-66784400D02*
X56845200Y-66784400D01*
X57766800Y-67056000D02*
X57495200Y-66784400D01*
X73660000Y-67056000D02*
X57766800Y-67056000D01*
X76301600Y-69697600D02*
X73660000Y-67056000D01*
X76301600Y-70358000D02*
X76301600Y-69697600D01*
X79660099Y-73716499D02*
X76301600Y-70358000D01*
X80969501Y-73716499D02*
X79660099Y-73716499D01*
%TO.N,sda*%
X53848000Y-67208400D02*
X53848000Y-66784400D01*
X55016400Y-68376800D02*
X53848000Y-67208400D01*
X84748001Y-71476501D02*
X85598000Y-72326500D01*
X84447999Y-71176499D02*
X84748001Y-71476501D01*
X80629393Y-71176499D02*
X84447999Y-71176499D01*
X79959200Y-70506306D02*
X80629393Y-71176499D01*
X79959200Y-69799200D02*
X79959200Y-70506306D01*
X45019948Y-81214990D02*
X55245000Y-81214990D01*
X44449958Y-80645000D02*
X45019948Y-81214990D01*
X57595201Y-65424401D02*
X57595201Y-65405000D01*
X78644099Y-71176499D02*
X84447999Y-71176499D01*
X74070801Y-66603201D02*
X78644099Y-71176499D01*
X71751930Y-66548000D02*
X71807131Y-66603201D01*
X55016400Y-68376800D02*
X55016400Y-67023198D01*
X62862099Y-65405000D02*
X64005099Y-66548000D01*
X57595201Y-65405000D02*
X62862099Y-65405000D01*
X57535201Y-65484401D02*
X57595201Y-65424401D01*
X56555197Y-65484401D02*
X57535201Y-65484401D01*
X71807131Y-66603201D02*
X74070801Y-66603201D01*
X55016400Y-67023198D02*
X56555197Y-65484401D01*
X64005099Y-66548000D02*
X71751930Y-66548000D01*
D29*
%TO.N,GND*%
X86447999Y-76556501D02*
X85598000Y-77406500D01*
X86898001Y-76106499D02*
X86447999Y-76556501D01*
X86898001Y-66622499D02*
X86898001Y-76106499D01*
X86222001Y-65946499D02*
X86898001Y-66622499D01*
X84358001Y-65946499D02*
X86222001Y-65946499D01*
X83058000Y-67246500D02*
X84358001Y-65946499D01*
X85598000Y-77406500D02*
X83058000Y-77406500D01*
D28*
X51855001Y-77469999D02*
X52705000Y-76620000D01*
X50109001Y-77469999D02*
X51855001Y-77469999D01*
X49412000Y-78167000D02*
X50109001Y-77469999D01*
%TO.N,scl1*%
X132080000Y-71120000D02*
X133985000Y-73025000D01*
X152890732Y-73025000D02*
X158042869Y-78177137D01*
X133985000Y-73025000D02*
X152890732Y-73025000D01*
%TO.N,sda1*%
X152399948Y-71120000D02*
X158749948Y-77470000D01*
X134620000Y-71120000D02*
X152399948Y-71120000D01*
D29*
%TO.N,Net-(SW1-Pad1)*%
X20955000Y-133985000D02*
X19685000Y-132715000D01*
X19685000Y-132715000D02*
X19685000Y-116205000D01*
X19685000Y-116205000D02*
X20955000Y-114935000D01*
X20955000Y-114935000D02*
X19685000Y-113665000D01*
X19685000Y-113665000D02*
X19685000Y-97155000D01*
X19685000Y-97155000D02*
X20955000Y-95885000D01*
D30*
X20955000Y-95885000D02*
X20320000Y-95250000D01*
X20320000Y-95250000D02*
X20320000Y-83337400D01*
D29*
%TO.N,Net-(SW10-Pad1)*%
X59055000Y-153035000D02*
X57785000Y-151765000D01*
X57785000Y-151765000D02*
X57785000Y-135255000D01*
X57785000Y-135255000D02*
X59055000Y-133985000D01*
X59055000Y-133985000D02*
X57785000Y-132715000D01*
X57785000Y-132715000D02*
X57785000Y-116205000D01*
X57785000Y-116205000D02*
X59055000Y-114935000D01*
X59055000Y-114935000D02*
X57785000Y-113665000D01*
X57785000Y-113665000D02*
X57785000Y-97155000D01*
X57785000Y-97155000D02*
X59055000Y-95885000D01*
D28*
X30226000Y-83058000D02*
X43053000Y-95885000D01*
X43053000Y-95885000D02*
X59055000Y-95885000D01*
D29*
%TO.N,Net-(SW25-Pad1)*%
X134620000Y-153035000D02*
X133350000Y-151765000D01*
X133350000Y-151765000D02*
X133350000Y-135255000D01*
X133350000Y-135255000D02*
X134620000Y-133985000D01*
X134620000Y-133985000D02*
X133350000Y-132715000D01*
X133350000Y-132715000D02*
X133350000Y-116205000D01*
X133350000Y-116205000D02*
X134620000Y-114935000D01*
X134620000Y-114935000D02*
X133350000Y-113665000D01*
X133350000Y-113665000D02*
X133350000Y-97155000D01*
X133350000Y-97155000D02*
X134620000Y-95885000D01*
D28*
X140335000Y-91725634D02*
X140335000Y-84455000D01*
X136175634Y-95885000D02*
X140335000Y-91725634D01*
X134620000Y-95885000D02*
X136175634Y-95885000D01*
D29*
%TO.N,Net-(SW29-Pad1)*%
X153670000Y-153035000D02*
X152400000Y-151765000D01*
X152400000Y-151765000D02*
X152400000Y-135255000D01*
X152400000Y-135255000D02*
X153670000Y-133985000D01*
X153670000Y-133985000D02*
X153035000Y-133985000D01*
X153670000Y-133985000D02*
X152400000Y-132715000D01*
X152400000Y-132715000D02*
X152400000Y-116205000D01*
X152400000Y-116205000D02*
X153670000Y-114935000D01*
X153670000Y-114935000D02*
X152400000Y-113665000D01*
X152400000Y-113665000D02*
X152400000Y-97155000D01*
X152400000Y-97155000D02*
X153670000Y-95885000D01*
D28*
X153670000Y-95885000D02*
X147955000Y-90170000D01*
X147955000Y-90170000D02*
X147955000Y-84455000D01*
D29*
%TO.N,Net-(SW13-Pad1)*%
X78105000Y-153035000D02*
X76835000Y-151765000D01*
X76835000Y-151765000D02*
X76835000Y-135255000D01*
X76835000Y-135255000D02*
X78105000Y-133985000D01*
X78105000Y-133985000D02*
X76835000Y-132715000D01*
X76835000Y-132715000D02*
X76835000Y-116205000D01*
X76835000Y-116205000D02*
X78105000Y-114935000D01*
X78105000Y-114935000D02*
X76835000Y-113665000D01*
X76835000Y-113665000D02*
X76835000Y-97155000D01*
X76835000Y-97155000D02*
X78105000Y-95885000D01*
D28*
X78105000Y-95885000D02*
X66675008Y-84455008D01*
X66675008Y-84455008D02*
X34925000Y-84455008D01*
D29*
%TO.N,Net-(SW5-Pad1)*%
X40005000Y-133985000D02*
X38735000Y-132715000D01*
X38735000Y-132715000D02*
X38735000Y-116205000D01*
X38862000Y-116205000D02*
X40132000Y-114935000D01*
X38735000Y-116205000D02*
X38862000Y-116205000D01*
X40132000Y-114935000D02*
X38862000Y-113665000D01*
X38862000Y-113665000D02*
X38862000Y-97282000D01*
X40005000Y-96139000D02*
X40005000Y-95885000D01*
X38862000Y-97282000D02*
X40005000Y-96139000D01*
D28*
X37465000Y-95885000D02*
X24942800Y-83362800D01*
X40005000Y-95885000D02*
X37465000Y-95885000D01*
D29*
X33655000Y-151765000D02*
X34925000Y-153035000D01*
X33655000Y-140335000D02*
X33655000Y-151765000D01*
X40005000Y-133985000D02*
X33655000Y-140335000D01*
%TO.N,Net-(SW17-Pad1)*%
X97155000Y-153035000D02*
X95885000Y-151765000D01*
X95885000Y-151765000D02*
X95885000Y-135255000D01*
X95885000Y-135255000D02*
X97155000Y-133985000D01*
X97155000Y-133985000D02*
X95885000Y-132715000D01*
X95885000Y-132715000D02*
X95885000Y-116205000D01*
X95885000Y-116205000D02*
X97155000Y-114935000D01*
X97155000Y-114935000D02*
X95885000Y-113665000D01*
X95885000Y-113665000D02*
X95885000Y-97155000D01*
X95885000Y-97155000D02*
X97155000Y-95885000D01*
D28*
X32919997Y-73290011D02*
X32519998Y-72890012D01*
X43449986Y-83820000D02*
X32919997Y-73290011D01*
X85090000Y-83820000D02*
X43449986Y-83820000D01*
X97155000Y-95885000D02*
X85090000Y-83820000D01*
D29*
%TO.N,Net-(SW21-Pad1)*%
X116205000Y-153035000D02*
X114935000Y-151765000D01*
X114935000Y-151765000D02*
X114935000Y-135255000D01*
X114935000Y-135255000D02*
X116205000Y-133985000D01*
X116205000Y-133985000D02*
X114935000Y-132715000D01*
X114935000Y-132715000D02*
X114935000Y-116205000D01*
X114935000Y-116205000D02*
X116205000Y-114935000D01*
X116205000Y-114935000D02*
X114935000Y-113665000D01*
X114935000Y-113665000D02*
X114935000Y-97155000D01*
X114935000Y-97155000D02*
X116205000Y-95885000D01*
D28*
X34185851Y-73149094D02*
X33785852Y-72749095D01*
X44221757Y-83185000D02*
X34185851Y-73149094D01*
X103505000Y-83185000D02*
X44221757Y-83185000D01*
X116205000Y-95885000D02*
X103505000Y-83185000D01*
D29*
%TO.N,Net-(SW33-Pad1)*%
X172720000Y-153035000D02*
X171450000Y-151765000D01*
X171450000Y-151765000D02*
X171450000Y-135255000D01*
X171450000Y-135255000D02*
X172720000Y-133985000D01*
X172720000Y-133985000D02*
X171450000Y-132715000D01*
X171450000Y-132715000D02*
X171450000Y-116205000D01*
X171450000Y-116205000D02*
X172720000Y-114935000D01*
X172720000Y-114935000D02*
X171450000Y-113665000D01*
X171450000Y-97155000D02*
X172720000Y-95885000D01*
X171450000Y-113665000D02*
X171450000Y-97155000D01*
D28*
X170180000Y-95885000D02*
X158115000Y-83820000D01*
X172720000Y-95885000D02*
X170180000Y-95885000D01*
D29*
%TO.N,Net-(SW37-Pad1)*%
X191770000Y-95885000D02*
X190500000Y-97155000D01*
X190500000Y-97155000D02*
X190500000Y-113665000D01*
X190500000Y-113665000D02*
X191770000Y-114935000D01*
X191770000Y-153035000D02*
X190500000Y-151765000D01*
X190500000Y-151765000D02*
X190500000Y-135255000D01*
X190500000Y-135255000D02*
X191770000Y-133985000D01*
X191770000Y-133985000D02*
X190500000Y-132715000D01*
X190500000Y-132715000D02*
X190500000Y-116205000D01*
X190500000Y-116205000D02*
X191770000Y-114935000D01*
D28*
X189865000Y-95885000D02*
X177165000Y-83185000D01*
X191770000Y-95885000D02*
X189865000Y-95885000D01*
D29*
%TO.N,Net-(SW41-Pad1)*%
X210820000Y-133985000D02*
X209550000Y-132715000D01*
X209550000Y-132715000D02*
X209550000Y-116205000D01*
X209550000Y-116205000D02*
X210820000Y-114935000D01*
X210820000Y-114935000D02*
X209550000Y-113665000D01*
X209550000Y-113665000D02*
X209550000Y-97155000D01*
X209550000Y-97155000D02*
X210820000Y-95885000D01*
X210820000Y-95885000D02*
X210185000Y-95885000D01*
X210820000Y-147955000D02*
X215900000Y-153035000D01*
X210820000Y-133985000D02*
X210820000Y-147955000D01*
D28*
X196850000Y-81915000D02*
X165735000Y-81915000D01*
X165735000Y-81915000D02*
X163829996Y-80009996D01*
X210820000Y-95885000D02*
X196850000Y-81915000D01*
D29*
%TO.N,Net-(SW45-Pad1)*%
X229870000Y-133985000D02*
X228600000Y-132715000D01*
X228600000Y-132715000D02*
X228600000Y-116205000D01*
X228600000Y-116205000D02*
X229870000Y-114935000D01*
X229870000Y-114935000D02*
X228600000Y-113665000D01*
X228600000Y-113665000D02*
X228600000Y-97155000D01*
X228600000Y-97155000D02*
X229870000Y-95885000D01*
D28*
X213995000Y-80010000D02*
X165734990Y-80010000D01*
X229870000Y-95885000D02*
X213995000Y-80010000D01*
D30*
%TO.N,VBAT*%
X78574000Y-63754000D02*
X78893902Y-63754000D01*
D28*
%TO.N,+3V3*%
X45085000Y-74069696D02*
X45085000Y-75565000D01*
X48912696Y-70242000D02*
X45085000Y-74069696D01*
X50037000Y-70242000D02*
X48912696Y-70242000D01*
D30*
X53848000Y-64584400D02*
X56845200Y-64584400D01*
X52497006Y-70242000D02*
X50037000Y-70242000D01*
X53557005Y-69182001D02*
X52497006Y-70242000D01*
X53557005Y-68485999D02*
X53557005Y-69182001D01*
X53072999Y-68001993D02*
X53557005Y-68485999D01*
X53072999Y-65359401D02*
X53072999Y-68001993D01*
X53848000Y-64584400D02*
X53072999Y-65359401D01*
D28*
X48812001Y-79392001D02*
X51632999Y-79392001D01*
X51632999Y-79392001D02*
X52705000Y-78320000D01*
X48712000Y-79292000D02*
X48812001Y-79392001D01*
X48712000Y-78167000D02*
X48712000Y-79292000D01*
D30*
%TO.N,Net-(CHG1-PadC)*%
X85598000Y-61976000D02*
X84074000Y-61976000D01*
D28*
%TO.N,/A0*%
X59170745Y-77470000D02*
X58505743Y-78135002D01*
X76835000Y-77470000D02*
X59170745Y-77470000D01*
%TO.N,/5*%
X82208001Y-75716499D02*
X83058000Y-74866500D01*
X72495523Y-76093511D02*
X81830989Y-76093511D01*
X72472001Y-76069989D02*
X72495523Y-76093511D01*
X71799999Y-76069989D02*
X72472001Y-76069989D01*
X71776477Y-76093511D02*
X71799999Y-76069989D01*
X53949600Y-74828400D02*
X54349599Y-75228399D01*
X63334912Y-75228399D02*
X64200024Y-76093511D01*
X54349599Y-75228399D02*
X63334912Y-75228399D01*
X64200024Y-76093511D02*
X71776477Y-76093511D01*
X81830989Y-76093511D02*
X82208001Y-75716499D01*
D30*
%TO.N,/9*%
X76874000Y-63550000D02*
X76874000Y-63754000D01*
D28*
X76924000Y-63754000D02*
X76874000Y-63754000D01*
X77978000Y-64808000D02*
X76924000Y-63754000D01*
X77978000Y-68783200D02*
X77978000Y-64808000D01*
X54877025Y-74154975D02*
X62848839Y-74154975D01*
X71220100Y-75693500D02*
X75895200Y-71018400D01*
X62848839Y-74154975D02*
X64387364Y-75693500D01*
X64387364Y-75693500D02*
X71220100Y-75693500D01*
D30*
X75946000Y-63754000D02*
X75184000Y-62992000D01*
X76874000Y-63754000D02*
X75946000Y-63754000D01*
D28*
%TO.N,/8_BLE_CS*%
X54762400Y-73050400D02*
X54196715Y-73050400D01*
X54196715Y-73050400D02*
X54188315Y-73042000D01*
D30*
X51212000Y-73042000D02*
X50037000Y-73042000D01*
D28*
X54188315Y-73042000D02*
X53832715Y-73042000D01*
D30*
X53832715Y-73042000D02*
X51212000Y-73042000D01*
D28*
%TO.N,/4_SWDIO/RST*%
X37962000Y-70242000D02*
X37084000Y-71120000D01*
X40387000Y-70242000D02*
X37962000Y-70242000D01*
X49754998Y-68834000D02*
X52832004Y-68834000D01*
X48346998Y-70242000D02*
X49754998Y-68834000D01*
X40387000Y-70242000D02*
X48346998Y-70242000D01*
%TO.N,/MISO*%
X50037000Y-71642000D02*
X51162000Y-71642000D01*
X51187601Y-71667601D02*
X63772555Y-71667601D01*
X63772555Y-71667601D02*
X64574156Y-70866000D01*
X51162000Y-71642000D02*
X51187601Y-71667601D01*
X64574156Y-70866000D02*
X65024000Y-70866000D01*
%TO.N,/MOSI*%
X50037000Y-72342000D02*
X64134158Y-72342000D01*
X64134158Y-72342000D02*
X64135999Y-72340159D01*
%TO.N,/SCK*%
X50062600Y-70967600D02*
X50037000Y-70942000D01*
X54533998Y-70942000D02*
X55016399Y-70459599D01*
X50037000Y-70942000D02*
X54533998Y-70942000D01*
%TO.N,Net-(IC1-Pad4)*%
X66852800Y-72535365D02*
X64535997Y-74852168D01*
X66852800Y-71258800D02*
X66852800Y-72535365D01*
X65024000Y-69430000D02*
X66852800Y-71258800D01*
%TO.N,Net-(IC1-Pad3)*%
X68834000Y-73926002D02*
X68834000Y-69850008D01*
X68834000Y-69850008D02*
X67818000Y-68834008D01*
D30*
%TO.N,/7_BLE_IRQ*%
X51212000Y-73742000D02*
X50037000Y-73742000D01*
D28*
X62607895Y-76407862D02*
X62657138Y-76407862D01*
X62605757Y-76410000D02*
X62607895Y-76407862D01*
X62657138Y-76407862D02*
X63499904Y-76407862D01*
X63499904Y-76407862D02*
X63500000Y-76407766D01*
X54347862Y-76407862D02*
X62657138Y-76407862D01*
X51682000Y-73742000D02*
X54347862Y-76407862D01*
X51212000Y-73742000D02*
X51682000Y-73742000D01*
%TO.N,/MODE*%
X40387000Y-68142000D02*
X43452000Y-68142000D01*
X43452000Y-68142000D02*
X46736000Y-64858000D01*
D30*
%TO.N,Net-(R102-Pad2)*%
X82296000Y-62054000D02*
X82374000Y-61976000D01*
X82296000Y-64416000D02*
X82296000Y-62054000D01*
D28*
%TO.N,/CONNECTED*%
X44060676Y-64953326D02*
X44060676Y-64839256D01*
X40387000Y-67442000D02*
X41572002Y-67442000D01*
X41572002Y-67442000D02*
X44060676Y-64953326D01*
%TO.N,/SWCLK*%
X39062000Y-69542000D02*
X38354000Y-68834000D01*
X40387000Y-69542000D02*
X37792000Y-69542000D01*
%TO.N,/FCTRYRST*%
X38384001Y-72355999D02*
X37334000Y-73406000D01*
X38384001Y-71954997D02*
X38384001Y-72355999D01*
X39396998Y-70942000D02*
X38384001Y-71954997D01*
X40387000Y-70942000D02*
X39396998Y-70942000D01*
%TO.N,Net-(J3-Pad1)*%
X33782000Y-62230000D02*
X56080802Y-62230000D01*
X58671321Y-64820519D02*
X71060453Y-64820519D01*
X71060453Y-64820519D02*
X72143133Y-65903199D01*
X56080802Y-62230000D02*
X58671321Y-64820519D01*
%TD*%
M02*
