%TF.GenerationSoftware,KiCad,Pcbnew,5.1.10*%
%TF.CreationDate,2021-05-01T11:53:20+02:00*%
%TF.ProjectId,splitboard,73706c69-7462-46f6-9172-642e6b696361,rev?*%
%TF.SameCoordinates,Original*%
%TF.FileFunction,Soldermask,Top*%
%TF.FilePolarity,Negative*%
%FSLAX46Y46*%
G04 Gerber Fmt 4.6, Leading zero omitted, Abs format (unit mm)*
G04 Created by KiCad (PCBNEW 5.1.10) date 2021-05-01 11:53:20*
%MOMM*%
%LPD*%
G01*
G04 APERTURE LIST*
%ADD10C,0.100000*%
%ADD11C,3.500000*%
%ADD12C,2.200000*%
%ADD13C,4.000000*%
%ADD14R,1.524000X1.524000*%
%ADD15C,1.524000*%
%ADD16R,1.500000X1.000000*%
%ADD17R,0.450000X1.750000*%
%ADD18R,2.000000X2.000000*%
%ADD19C,2.000000*%
%ADD20R,3.000000X2.500000*%
%ADD21O,1.700000X1.700000*%
%ADD22R,1.700000X1.700000*%
%ADD23C,0.900000*%
%ADD24C,1.301600*%
%ADD25C,0.700000*%
%ADD26R,0.900000X0.800000*%
%ADD27R,1.200000X0.900000*%
%ADD28R,0.900000X1.200000*%
%ADD29R,1.200000X0.750000*%
G04 APERTURE END LIST*
D10*
%TO.C,X3*%
G36*
X66260000Y-62915000D02*
G01*
X65760000Y-62915000D01*
X65760000Y-64365000D01*
X66260000Y-64365000D01*
X66260000Y-62915000D01*
G37*
G36*
X66910000Y-62915000D02*
G01*
X66410000Y-62915000D01*
X66410000Y-64365000D01*
X66910000Y-64365000D01*
X66910000Y-62915000D01*
G37*
G36*
X67560000Y-62915000D02*
G01*
X67060000Y-62915000D01*
X67060000Y-64365000D01*
X67560000Y-64365000D01*
X67560000Y-62915000D01*
G37*
G36*
X68210000Y-62915000D02*
G01*
X67710000Y-62915000D01*
X67710000Y-64365000D01*
X68210000Y-64365000D01*
X68210000Y-62915000D01*
G37*
G36*
X68860000Y-62915000D02*
G01*
X68360000Y-62915000D01*
X68360000Y-64365000D01*
X68860000Y-64365000D01*
X68860000Y-62915000D01*
G37*
%TD*%
D11*
%TO.C,Hole*%
X222885000Y-100330000D03*
%TD*%
%TO.C,Hole*%
X203835000Y-138430000D03*
%TD*%
%TO.C,Hole*%
X146685000Y-100330000D03*
%TD*%
%TO.C,Hole*%
X146685000Y-138430000D03*
%TD*%
%TO.C,Hole*%
X109220000Y-138430000D03*
%TD*%
%TO.C,Hole*%
X52070000Y-138430000D03*
%TD*%
%TO.C,Hole*%
X33020000Y-100330000D03*
%TD*%
%TO.C,Hole*%
X109220000Y-100330000D03*
%TD*%
D12*
%TO.C,SW40*%
X191770000Y-153035000D03*
X198120000Y-150495000D03*
D13*
X194310000Y-147955000D03*
D14*
X193040000Y-142875000D03*
D15*
X195580000Y-142875000D03*
%TD*%
%TO.C,R53*%
G36*
G01*
X40957500Y-71655000D02*
X40957500Y-71855000D01*
G75*
G02*
X40857500Y-71955000I-100000J0D01*
G01*
X40422500Y-71955000D01*
G75*
G02*
X40322500Y-71855000I0J100000D01*
G01*
X40322500Y-71655000D01*
G75*
G02*
X40422500Y-71555000I100000J0D01*
G01*
X40857500Y-71555000D01*
G75*
G02*
X40957500Y-71655000I0J-100000D01*
G01*
G37*
G36*
G01*
X41772500Y-71655000D02*
X41772500Y-71855000D01*
G75*
G02*
X41672500Y-71955000I-100000J0D01*
G01*
X41237500Y-71955000D01*
G75*
G02*
X41137500Y-71855000I0J100000D01*
G01*
X41137500Y-71655000D01*
G75*
G02*
X41237500Y-71555000I100000J0D01*
G01*
X41672500Y-71555000D01*
G75*
G02*
X41772500Y-71655000I0J-100000D01*
G01*
G37*
%TD*%
%TO.C,R52*%
G36*
G01*
X40957500Y-69750000D02*
X40957500Y-69950000D01*
G75*
G02*
X40857500Y-70050000I-100000J0D01*
G01*
X40422500Y-70050000D01*
G75*
G02*
X40322500Y-69950000I0J100000D01*
G01*
X40322500Y-69750000D01*
G75*
G02*
X40422500Y-69650000I100000J0D01*
G01*
X40857500Y-69650000D01*
G75*
G02*
X40957500Y-69750000I0J-100000D01*
G01*
G37*
G36*
G01*
X41772500Y-69750000D02*
X41772500Y-69950000D01*
G75*
G02*
X41672500Y-70050000I-100000J0D01*
G01*
X41237500Y-70050000D01*
G75*
G02*
X41137500Y-69950000I0J100000D01*
G01*
X41137500Y-69750000D01*
G75*
G02*
X41237500Y-69650000I100000J0D01*
G01*
X41672500Y-69650000D01*
G75*
G02*
X41772500Y-69750000I0J-100000D01*
G01*
G37*
%TD*%
%TO.C,R51*%
G36*
G01*
X40957500Y-67845000D02*
X40957500Y-68045000D01*
G75*
G02*
X40857500Y-68145000I-100000J0D01*
G01*
X40422500Y-68145000D01*
G75*
G02*
X40322500Y-68045000I0J100000D01*
G01*
X40322500Y-67845000D01*
G75*
G02*
X40422500Y-67745000I100000J0D01*
G01*
X40857500Y-67745000D01*
G75*
G02*
X40957500Y-67845000I0J-100000D01*
G01*
G37*
G36*
G01*
X41772500Y-67845000D02*
X41772500Y-68045000D01*
G75*
G02*
X41672500Y-68145000I-100000J0D01*
G01*
X41237500Y-68145000D01*
G75*
G02*
X41137500Y-68045000I0J100000D01*
G01*
X41137500Y-67845000D01*
G75*
G02*
X41237500Y-67745000I100000J0D01*
G01*
X41672500Y-67745000D01*
G75*
G02*
X41772500Y-67845000I0J-100000D01*
G01*
G37*
%TD*%
D16*
%TO.C,D2*%
X43270000Y-68250000D03*
X43270000Y-69850000D03*
X43270000Y-71450000D03*
X48170000Y-68250000D03*
X48170000Y-69850000D03*
X48170000Y-71450000D03*
%TD*%
D12*
%TO.C,SW44*%
X215900000Y-153035000D03*
X222250000Y-150495000D03*
D13*
X218440000Y-147955000D03*
D14*
X217170000Y-142875000D03*
D15*
X219710000Y-142875000D03*
%TD*%
D12*
%TO.C,SW5*%
X40005000Y-95885000D03*
X46355000Y-93345000D03*
D13*
X42545000Y-90805000D03*
D14*
X41275000Y-85725000D03*
D15*
X43815000Y-85725000D03*
%TD*%
D12*
%TO.C,SW1*%
X20955000Y-95885000D03*
X27305000Y-93345000D03*
D13*
X23495000Y-90805000D03*
D14*
X22225000Y-85725000D03*
D15*
X24765000Y-85725000D03*
%TD*%
D12*
%TO.C,SW22*%
X116205000Y-114935000D03*
X122555000Y-112395000D03*
D13*
X118745000Y-109855000D03*
D14*
X117475000Y-104775000D03*
D15*
X120015000Y-104775000D03*
%TD*%
D12*
%TO.C,SW3*%
X20955000Y-133985000D03*
X27305000Y-131445000D03*
D13*
X23495000Y-128905000D03*
D14*
X22225000Y-123825000D03*
D15*
X24765000Y-123825000D03*
%TD*%
D12*
%TO.C,SW24*%
X116205000Y-153035000D03*
X122555000Y-150495000D03*
D13*
X118745000Y-147955000D03*
D14*
X117475000Y-142875000D03*
D15*
X120015000Y-142875000D03*
%TD*%
D12*
%TO.C,SW19*%
X97155000Y-133985000D03*
X103505000Y-131445000D03*
D13*
X99695000Y-128905000D03*
D14*
X98425000Y-123825000D03*
D15*
X100965000Y-123825000D03*
%TD*%
D12*
%TO.C,SW15*%
X78105000Y-133985000D03*
X84455000Y-131445000D03*
D13*
X80645000Y-128905000D03*
D14*
X79375000Y-123825000D03*
D15*
X81915000Y-123825000D03*
%TD*%
D12*
%TO.C,SW47*%
X229870000Y-133985000D03*
X236220000Y-131445000D03*
D13*
X232410000Y-128905000D03*
D14*
X231140000Y-123825000D03*
D15*
X233680000Y-123825000D03*
%TD*%
D12*
%TO.C,SW46*%
X229870000Y-114935000D03*
X236220000Y-112395000D03*
D13*
X232410000Y-109855000D03*
D14*
X231140000Y-104775000D03*
D15*
X233680000Y-104775000D03*
%TD*%
D12*
%TO.C,SW45*%
X229870000Y-95885000D03*
X236220000Y-93345000D03*
D13*
X232410000Y-90805000D03*
D14*
X231140000Y-85725000D03*
D15*
X233680000Y-85725000D03*
%TD*%
D12*
%TO.C,SW43*%
X210820000Y-133985000D03*
X217170000Y-131445000D03*
D13*
X213360000Y-128905000D03*
D14*
X212090000Y-123825000D03*
D15*
X214630000Y-123825000D03*
%TD*%
D12*
%TO.C,SW42*%
X210820000Y-114935000D03*
X217170000Y-112395000D03*
D13*
X213360000Y-109855000D03*
D14*
X212090000Y-104775000D03*
D15*
X214630000Y-104775000D03*
%TD*%
D12*
%TO.C,SW41*%
X210820000Y-95885000D03*
X217170000Y-93345000D03*
D13*
X213360000Y-90805000D03*
D14*
X212090000Y-85725000D03*
D15*
X214630000Y-85725000D03*
%TD*%
D12*
%TO.C,SW39*%
X191770000Y-133985000D03*
X198120000Y-131445000D03*
D13*
X194310000Y-128905000D03*
D14*
X193040000Y-123825000D03*
D15*
X195580000Y-123825000D03*
%TD*%
D12*
%TO.C,SW38*%
X191770000Y-114935000D03*
X198120000Y-112395000D03*
D13*
X194310000Y-109855000D03*
D14*
X193040000Y-104775000D03*
D15*
X195580000Y-104775000D03*
%TD*%
D12*
%TO.C,SW37*%
X191770000Y-95885000D03*
X198120000Y-93345000D03*
D13*
X194310000Y-90805000D03*
D14*
X193040000Y-85725000D03*
D15*
X195580000Y-85725000D03*
%TD*%
D12*
%TO.C,SW36*%
X172720000Y-153035000D03*
X179070000Y-150495000D03*
D13*
X175260000Y-147955000D03*
D14*
X173990000Y-142875000D03*
D15*
X176530000Y-142875000D03*
%TD*%
D12*
%TO.C,SW35*%
X172720000Y-133985000D03*
X179070000Y-131445000D03*
D13*
X175260000Y-128905000D03*
D14*
X173990000Y-123825000D03*
D15*
X176530000Y-123825000D03*
%TD*%
D12*
%TO.C,SW34*%
X172720000Y-114935000D03*
X179070000Y-112395000D03*
D13*
X175260000Y-109855000D03*
D14*
X173990000Y-104775000D03*
D15*
X176530000Y-104775000D03*
%TD*%
D12*
%TO.C,SW33*%
X172720000Y-95885000D03*
X179070000Y-93345000D03*
D13*
X175260000Y-90805000D03*
D14*
X173990000Y-85725000D03*
D15*
X176530000Y-85725000D03*
%TD*%
D12*
%TO.C,SW32*%
X153670000Y-153035000D03*
X160020000Y-150495000D03*
D13*
X156210000Y-147955000D03*
D14*
X154940000Y-142875000D03*
D15*
X157480000Y-142875000D03*
%TD*%
D12*
%TO.C,SW31*%
X153670000Y-133985000D03*
X160020000Y-131445000D03*
D13*
X156210000Y-128905000D03*
D14*
X154940000Y-123825000D03*
D15*
X157480000Y-123825000D03*
%TD*%
D12*
%TO.C,SW30*%
X153670000Y-114935000D03*
X160020000Y-112395000D03*
D13*
X156210000Y-109855000D03*
D14*
X154940000Y-104775000D03*
D15*
X157480000Y-104775000D03*
%TD*%
D12*
%TO.C,SW29*%
X153670000Y-95885000D03*
X160020000Y-93345000D03*
D13*
X156210000Y-90805000D03*
D14*
X154940000Y-85725000D03*
D15*
X157480000Y-85725000D03*
%TD*%
D12*
%TO.C,SW28*%
X134620000Y-153035000D03*
X140970000Y-150495000D03*
D13*
X137160000Y-147955000D03*
D14*
X135890000Y-142875000D03*
D15*
X138430000Y-142875000D03*
%TD*%
D12*
%TO.C,SW27*%
X134620000Y-133985000D03*
X140970000Y-131445000D03*
D13*
X137160000Y-128905000D03*
D14*
X135890000Y-123825000D03*
D15*
X138430000Y-123825000D03*
%TD*%
D12*
%TO.C,SW26*%
X134620000Y-114935000D03*
X140970000Y-112395000D03*
D13*
X137160000Y-109855000D03*
D14*
X135890000Y-104775000D03*
D15*
X138430000Y-104775000D03*
%TD*%
D12*
%TO.C,SW25*%
X134620000Y-95885000D03*
X140970000Y-93345000D03*
D13*
X137160000Y-90805000D03*
D14*
X135890000Y-85725000D03*
D15*
X138430000Y-85725000D03*
%TD*%
D12*
%TO.C,SW23*%
X116205000Y-133985000D03*
X122555000Y-131445000D03*
D13*
X118745000Y-128905000D03*
D14*
X117475000Y-123825000D03*
D15*
X120015000Y-123825000D03*
%TD*%
D12*
%TO.C,SW21*%
X116205000Y-95885000D03*
X122555000Y-93345000D03*
D13*
X118745000Y-90805000D03*
D14*
X117475000Y-85725000D03*
D15*
X120015000Y-85725000D03*
%TD*%
D12*
%TO.C,SW20*%
X97155000Y-153035000D03*
X103505000Y-150495000D03*
D13*
X99695000Y-147955000D03*
D14*
X98425000Y-142875000D03*
D15*
X100965000Y-142875000D03*
%TD*%
D12*
%TO.C,SW18*%
X97155000Y-114935000D03*
X103505000Y-112395000D03*
D13*
X99695000Y-109855000D03*
D14*
X98425000Y-104775000D03*
D15*
X100965000Y-104775000D03*
%TD*%
D12*
%TO.C,SW17*%
X97155000Y-95885000D03*
X103505000Y-93345000D03*
D13*
X99695000Y-90805000D03*
D14*
X98425000Y-85725000D03*
D15*
X100965000Y-85725000D03*
%TD*%
D12*
%TO.C,SW16*%
X78105000Y-153035000D03*
X84455000Y-150495000D03*
D13*
X80645000Y-147955000D03*
D14*
X79375000Y-142875000D03*
D15*
X81915000Y-142875000D03*
%TD*%
D12*
%TO.C,SW14*%
X78105000Y-114935000D03*
X84455000Y-112395000D03*
D13*
X80645000Y-109855000D03*
D14*
X79375000Y-104775000D03*
D15*
X81915000Y-104775000D03*
%TD*%
D12*
%TO.C,SW13*%
X78105000Y-95885000D03*
X84455000Y-93345000D03*
D13*
X80645000Y-90805000D03*
D14*
X79375000Y-85725000D03*
D15*
X81915000Y-85725000D03*
%TD*%
D12*
%TO.C,SW12*%
X59055000Y-153035000D03*
X65405000Y-150495000D03*
D13*
X61595000Y-147955000D03*
D14*
X60325000Y-142875000D03*
D15*
X62865000Y-142875000D03*
%TD*%
D12*
%TO.C,SW11*%
X59055000Y-133985000D03*
X65405000Y-131445000D03*
D13*
X61595000Y-128905000D03*
D14*
X60325000Y-123825000D03*
D15*
X62865000Y-123825000D03*
%TD*%
D12*
%TO.C,SW10*%
X59055000Y-114935000D03*
X65405000Y-112395000D03*
D13*
X61595000Y-109855000D03*
D14*
X60325000Y-104775000D03*
D15*
X62865000Y-104775000D03*
%TD*%
D12*
%TO.C,SW9*%
X59055000Y-95885000D03*
X65405000Y-93345000D03*
D13*
X61595000Y-90805000D03*
D14*
X60325000Y-85725000D03*
D15*
X62865000Y-85725000D03*
%TD*%
D12*
%TO.C,SW8*%
X34925000Y-153035000D03*
X41275000Y-150495000D03*
D13*
X37465000Y-147955000D03*
D14*
X36195000Y-142875000D03*
D15*
X38735000Y-142875000D03*
%TD*%
D12*
%TO.C,SW7*%
X40005000Y-133985000D03*
X46355000Y-131445000D03*
D13*
X42545000Y-128905000D03*
D14*
X41275000Y-123825000D03*
D15*
X43815000Y-123825000D03*
%TD*%
D12*
%TO.C,SW6*%
X40005000Y-114935000D03*
X46355000Y-112395000D03*
D13*
X42545000Y-109855000D03*
D14*
X41275000Y-104775000D03*
D15*
X43815000Y-104775000D03*
%TD*%
D12*
%TO.C,SW2*%
X20955000Y-114935000D03*
X27305000Y-112395000D03*
D13*
X23495000Y-109855000D03*
D14*
X22225000Y-104775000D03*
D15*
X24765000Y-104775000D03*
%TD*%
D17*
%TO.C,U1*%
X36722000Y-77514000D03*
X36072000Y-77514000D03*
X35422000Y-77514000D03*
X34772000Y-77514000D03*
X34122000Y-77514000D03*
X33472000Y-77514000D03*
X32822000Y-77514000D03*
X32172000Y-77514000D03*
X31522000Y-77514000D03*
X30872000Y-77514000D03*
X30222000Y-77514000D03*
X29572000Y-77514000D03*
X29572000Y-70314000D03*
X30222000Y-70314000D03*
X30872000Y-70314000D03*
X31522000Y-70314000D03*
X32172000Y-70314000D03*
X32822000Y-70314000D03*
X33472000Y-70314000D03*
X34122000Y-70314000D03*
X34772000Y-70314000D03*
X35422000Y-70314000D03*
X36072000Y-70314000D03*
X36722000Y-70314000D03*
%TD*%
%TO.C,U2*%
X159785000Y-79800000D03*
X159135000Y-79800000D03*
X158485000Y-79800000D03*
X157835000Y-79800000D03*
X157185000Y-79800000D03*
X156535000Y-79800000D03*
X155885000Y-79800000D03*
X155235000Y-79800000D03*
X154585000Y-79800000D03*
X153935000Y-79800000D03*
X153285000Y-79800000D03*
X152635000Y-79800000D03*
X152635000Y-72600000D03*
X153285000Y-72600000D03*
X153935000Y-72600000D03*
X154585000Y-72600000D03*
X155235000Y-72600000D03*
X155885000Y-72600000D03*
X156535000Y-72600000D03*
X157185000Y-72600000D03*
X157835000Y-72600000D03*
X158485000Y-72600000D03*
X159135000Y-72600000D03*
X159785000Y-72600000D03*
%TD*%
D18*
%TO.C,SW50*%
X213360000Y-67945000D03*
D19*
X213360000Y-70445000D03*
X213360000Y-72945000D03*
D20*
X220860000Y-64845000D03*
X220860000Y-76045000D03*
%TD*%
D16*
%TO.C,D1*%
X198591000Y-68758000D03*
X198591000Y-70358000D03*
X198591000Y-71958000D03*
X203491000Y-68758000D03*
X203491000Y-70358000D03*
X203491000Y-71958000D03*
%TD*%
D21*
%TO.C,J3*%
X33782000Y-64770000D03*
D22*
X33782000Y-62230000D03*
%TD*%
D21*
%TO.C,J2*%
X134620000Y-71120000D03*
X132080000Y-71120000D03*
X134620000Y-68580000D03*
D22*
X132080000Y-68580000D03*
%TD*%
D23*
%TO.C,U5*%
X43012000Y-64892000D03*
%TD*%
%TO.C,X3*%
G36*
G01*
X66060000Y-59814200D02*
X67060000Y-59814200D01*
G75*
G02*
X67110800Y-59865000I0J-50800D01*
G01*
X67110800Y-61865000D01*
G75*
G02*
X67060000Y-61915800I-50800J0D01*
G01*
X66060000Y-61915800D01*
G75*
G02*
X66009200Y-61865000I0J50800D01*
G01*
X66009200Y-59865000D01*
G75*
G02*
X66060000Y-59814200I50800J0D01*
G01*
G37*
G36*
G01*
X67560000Y-59814200D02*
X68560000Y-59814200D01*
G75*
G02*
X68610800Y-59865000I0J-50800D01*
G01*
X68610800Y-61865000D01*
G75*
G02*
X68560000Y-61915800I-50800J0D01*
G01*
X67560000Y-61915800D01*
G75*
G02*
X67509200Y-61865000I0J50800D01*
G01*
X67509200Y-59865000D01*
G75*
G02*
X67560000Y-59814200I50800J0D01*
G01*
G37*
G36*
G01*
X66260800Y-62965000D02*
X66260800Y-64315000D01*
G75*
G02*
X66210000Y-64365800I-50800J0D01*
G01*
X65810000Y-64365800D01*
G75*
G02*
X65759200Y-64315000I0J50800D01*
G01*
X65759200Y-62965000D01*
G75*
G02*
X65810000Y-62914200I50800J0D01*
G01*
X66210000Y-62914200D01*
G75*
G02*
X66260800Y-62965000I0J-50800D01*
G01*
G37*
G36*
G01*
X66910800Y-62965000D02*
X66910800Y-64315000D01*
G75*
G02*
X66860000Y-64365800I-50800J0D01*
G01*
X66460000Y-64365800D01*
G75*
G02*
X66409200Y-64315000I0J50800D01*
G01*
X66409200Y-62965000D01*
G75*
G02*
X66460000Y-62914200I50800J0D01*
G01*
X66860000Y-62914200D01*
G75*
G02*
X66910800Y-62965000I0J-50800D01*
G01*
G37*
G36*
G01*
X67560800Y-62965000D02*
X67560800Y-64315000D01*
G75*
G02*
X67510000Y-64365800I-50800J0D01*
G01*
X67110000Y-64365800D01*
G75*
G02*
X67059200Y-64315000I0J50800D01*
G01*
X67059200Y-62965000D01*
G75*
G02*
X67110000Y-62914200I50800J0D01*
G01*
X67510000Y-62914200D01*
G75*
G02*
X67560800Y-62965000I0J-50800D01*
G01*
G37*
G36*
G01*
X68210800Y-62965000D02*
X68210800Y-64315000D01*
G75*
G02*
X68160000Y-64365800I-50800J0D01*
G01*
X67760000Y-64365800D01*
G75*
G02*
X67709200Y-64315000I0J50800D01*
G01*
X67709200Y-62965000D01*
G75*
G02*
X67760000Y-62914200I50800J0D01*
G01*
X68160000Y-62914200D01*
G75*
G02*
X68210800Y-62965000I0J-50800D01*
G01*
G37*
G36*
G01*
X68860800Y-62965000D02*
X68860800Y-64315000D01*
G75*
G02*
X68810000Y-64365800I-50800J0D01*
G01*
X68410000Y-64365800D01*
G75*
G02*
X68359200Y-64315000I0J50800D01*
G01*
X68359200Y-62965000D01*
G75*
G02*
X68410000Y-62914200I50800J0D01*
G01*
X68810000Y-62914200D01*
G75*
G02*
X68860800Y-62965000I0J-50800D01*
G01*
G37*
D24*
X64010000Y-63765000D03*
X70610000Y-63765000D03*
G36*
G01*
X69660000Y-59664200D02*
X72160000Y-59664200D01*
G75*
G02*
X72210800Y-59715000I0J-50800D01*
G01*
X72210800Y-62215000D01*
G75*
G02*
X72160000Y-62265800I-50800J0D01*
G01*
X69660000Y-62265800D01*
G75*
G02*
X69609200Y-62215000I0J50800D01*
G01*
X69609200Y-59715000D01*
G75*
G02*
X69660000Y-59664200I50800J0D01*
G01*
G37*
G36*
G01*
X62460000Y-59664200D02*
X64960000Y-59664200D01*
G75*
G02*
X65010800Y-59715000I0J-50800D01*
G01*
X65010800Y-62215000D01*
G75*
G02*
X64960000Y-62265800I-50800J0D01*
G01*
X62460000Y-62265800D01*
G75*
G02*
X62409200Y-62215000I0J50800D01*
G01*
X62409200Y-59715000D01*
G75*
G02*
X62460000Y-59664200I50800J0D01*
G01*
G37*
D25*
X65360000Y-62865000D03*
X69260000Y-62865000D03*
%TD*%
D26*
%TO.C,Q2*%
X176165000Y-75250000D03*
X176165000Y-77150000D03*
X178165000Y-76200000D03*
%TD*%
D22*
%TO.C,J1*%
X83058000Y-67246500D03*
D21*
X85598000Y-67246500D03*
X83058000Y-69786500D03*
X85598000Y-69786500D03*
X83058000Y-72326500D03*
X85598000Y-72326500D03*
X83058000Y-74866500D03*
X85598000Y-74866500D03*
X83058000Y-77406500D03*
X85598000Y-77406500D03*
%TD*%
D27*
%TO.C,R58*%
X193845000Y-73025000D03*
X196045000Y-73025000D03*
%TD*%
%TO.C,R57*%
X193845000Y-70485000D03*
X196045000Y-70485000D03*
%TD*%
%TO.C,R56*%
X193845000Y-67945000D03*
X196045000Y-67945000D03*
%TD*%
D28*
%TO.C,R47*%
X224155000Y-123825000D03*
X224155000Y-126025000D03*
%TD*%
%TO.C,R46*%
X224155000Y-107655000D03*
X224155000Y-109855000D03*
%TD*%
%TO.C,R45*%
X224155000Y-85725000D03*
X224155000Y-87925000D03*
%TD*%
%TO.C,R44*%
X226695000Y-142875000D03*
X226695000Y-145075000D03*
%TD*%
%TO.C,R43*%
X221615000Y-123825000D03*
X221615000Y-126025000D03*
%TD*%
%TO.C,R42*%
X221615000Y-107655000D03*
X221615000Y-109855000D03*
%TD*%
%TO.C,R41*%
X221615000Y-85725000D03*
X221615000Y-87925000D03*
%TD*%
%TO.C,R40*%
X186055000Y-142875000D03*
X186055000Y-145075000D03*
%TD*%
%TO.C,R39*%
X202565000Y-123825000D03*
X202565000Y-126025000D03*
%TD*%
%TO.C,R38*%
X202565000Y-104775000D03*
X202565000Y-106975000D03*
%TD*%
%TO.C,R37*%
X202565000Y-85725000D03*
X202565000Y-87925000D03*
%TD*%
%TO.C,R36*%
X183515000Y-142875000D03*
X183515000Y-145075000D03*
%TD*%
%TO.C,R35*%
X183515000Y-123825000D03*
X183515000Y-126025000D03*
%TD*%
%TO.C,R34*%
X183515000Y-104775000D03*
X183515000Y-106975000D03*
%TD*%
%TO.C,R33*%
X183515000Y-85725000D03*
X183515000Y-87925000D03*
%TD*%
%TO.C,R32*%
X164465000Y-142875000D03*
X164465000Y-145075000D03*
%TD*%
%TO.C,R31*%
X164465000Y-123825000D03*
X164465000Y-126025000D03*
%TD*%
%TO.C,R30*%
X164465000Y-104775000D03*
X164465000Y-106975000D03*
%TD*%
%TO.C,R29*%
X164465000Y-85725000D03*
X164465000Y-87925000D03*
%TD*%
%TO.C,R28*%
X145415000Y-144950000D03*
X145415000Y-147150000D03*
%TD*%
%TO.C,R27*%
X145415000Y-123825000D03*
X145415000Y-126025000D03*
%TD*%
%TO.C,R26*%
X145415000Y-106850000D03*
X145415000Y-109050000D03*
%TD*%
%TO.C,R25*%
X145415000Y-85725000D03*
X145415000Y-87925000D03*
%TD*%
%TO.C,R24*%
X110490000Y-146390000D03*
X110490000Y-148590000D03*
%TD*%
%TO.C,R23*%
X110490000Y-123825000D03*
X110490000Y-126025000D03*
%TD*%
%TO.C,R22*%
X110490000Y-108290000D03*
X110490000Y-110490000D03*
%TD*%
%TO.C,R21*%
X110490000Y-85768000D03*
X110490000Y-87968000D03*
%TD*%
%TO.C,R20*%
X107950000Y-146390000D03*
X107950000Y-148590000D03*
%TD*%
%TO.C,R19*%
X107950000Y-123825000D03*
X107950000Y-126025000D03*
%TD*%
%TO.C,R18*%
X107950000Y-108290000D03*
X107950000Y-110490000D03*
%TD*%
%TO.C,R17*%
X107950000Y-85768000D03*
X107950000Y-87968000D03*
%TD*%
%TO.C,R16*%
X88900000Y-142875000D03*
X88900000Y-145075000D03*
%TD*%
%TO.C,R15*%
X88900000Y-123825000D03*
X88900000Y-126025000D03*
%TD*%
%TO.C,R14*%
X88900000Y-104775000D03*
X88900000Y-106975000D03*
%TD*%
%TO.C,R13*%
X88900000Y-85725000D03*
X88900000Y-87925000D03*
%TD*%
%TO.C,R12*%
X69850000Y-142875000D03*
X69850000Y-145075000D03*
%TD*%
%TO.C,R11*%
X69850000Y-123825000D03*
X69850000Y-126025000D03*
%TD*%
%TO.C,R10*%
X69850000Y-104775000D03*
X69850000Y-106975000D03*
%TD*%
%TO.C,R9*%
X69850000Y-85725000D03*
X69850000Y-87925000D03*
%TD*%
%TO.C,R8*%
X44450000Y-142875000D03*
X44450000Y-145075000D03*
%TD*%
%TO.C,R7*%
X50800000Y-123825000D03*
X50800000Y-126025000D03*
%TD*%
%TO.C,R6*%
X50800000Y-104775000D03*
X50800000Y-106975000D03*
%TD*%
%TO.C,R5*%
X50800000Y-85725000D03*
X50800000Y-87925000D03*
%TD*%
%TO.C,R3*%
X31750000Y-123825000D03*
X31750000Y-126025000D03*
%TD*%
%TO.C,R2*%
X31750000Y-107655000D03*
X31750000Y-109855000D03*
%TD*%
%TO.C,R1*%
X31750000Y-85725000D03*
X31750000Y-87925000D03*
%TD*%
D26*
%TO.C,Q1*%
X47895000Y-79695000D03*
X47895000Y-81595000D03*
X49895000Y-80645000D03*
%TD*%
D29*
%TO.C,C2*%
X170495000Y-79375000D03*
X168595000Y-79375000D03*
%TD*%
%TO.C,C1*%
X35778400Y-67818000D03*
X37678400Y-67818000D03*
%TD*%
D27*
%TO.C,R50*%
X170815000Y-75565000D03*
X168615000Y-75565000D03*
%TD*%
D28*
%TO.C,R49*%
X209550000Y-75395000D03*
X209550000Y-73195000D03*
%TD*%
%TO.C,R48*%
X207010000Y-75395000D03*
X207010000Y-73195000D03*
%TD*%
D27*
%TO.C,R4*%
X46185000Y-77470000D03*
X43985000Y-77470000D03*
%TD*%
%TO.C,Y1*%
G36*
G01*
X60743200Y-67702801D02*
X60743200Y-66002799D01*
G75*
G02*
X60793999Y-65952000I50799J0D01*
G01*
X61494001Y-65952000D01*
G75*
G02*
X61544800Y-66002799I0J-50799D01*
G01*
X61544800Y-67702801D01*
G75*
G02*
X61494001Y-67753600I-50799J0D01*
G01*
X60793999Y-67753600D01*
G75*
G02*
X60743200Y-67702801I0J50799D01*
G01*
G37*
G36*
G01*
X59543200Y-67702801D02*
X59543200Y-66002799D01*
G75*
G02*
X59593999Y-65952000I50799J0D01*
G01*
X60294001Y-65952000D01*
G75*
G02*
X60344800Y-66002799I0J-50799D01*
G01*
X60344800Y-67702801D01*
G75*
G02*
X60294001Y-67753600I-50799J0D01*
G01*
X59593999Y-67753600D01*
G75*
G02*
X59543200Y-67702801I0J50799D01*
G01*
G37*
G36*
G01*
X58343200Y-67702801D02*
X58343200Y-66002799D01*
G75*
G02*
X58393999Y-65952000I50799J0D01*
G01*
X59094001Y-65952000D01*
G75*
G02*
X59144800Y-66002799I0J-50799D01*
G01*
X59144800Y-67702801D01*
G75*
G02*
X59094001Y-67753600I-50799J0D01*
G01*
X58393999Y-67753600D01*
G75*
G02*
X58343200Y-67702801I0J50799D01*
G01*
G37*
%TD*%
%TO.C,U4*%
G36*
G01*
X74935800Y-73344100D02*
X74935800Y-74544100D01*
G75*
G02*
X74885000Y-74594900I-50800J0D01*
G01*
X74335000Y-74594900D01*
G75*
G02*
X74284200Y-74544100I0J50800D01*
G01*
X74284200Y-73344100D01*
G75*
G02*
X74335000Y-73293300I50800J0D01*
G01*
X74885000Y-73293300D01*
G75*
G02*
X74935800Y-73344100I0J-50800D01*
G01*
G37*
G36*
G01*
X73035800Y-73344100D02*
X73035800Y-74544100D01*
G75*
G02*
X72985000Y-74594900I-50800J0D01*
G01*
X72435000Y-74594900D01*
G75*
G02*
X72384200Y-74544100I0J50800D01*
G01*
X72384200Y-73344100D01*
G75*
G02*
X72435000Y-73293300I50800J0D01*
G01*
X72985000Y-73293300D01*
G75*
G02*
X73035800Y-73344100I0J-50800D01*
G01*
G37*
G36*
G01*
X73035800Y-70743900D02*
X73035800Y-71943900D01*
G75*
G02*
X72985000Y-71994700I-50800J0D01*
G01*
X72435000Y-71994700D01*
G75*
G02*
X72384200Y-71943900I0J50800D01*
G01*
X72384200Y-70743900D01*
G75*
G02*
X72435000Y-70693100I50800J0D01*
G01*
X72985000Y-70693100D01*
G75*
G02*
X73035800Y-70743900I0J-50800D01*
G01*
G37*
G36*
G01*
X73985800Y-70743900D02*
X73985800Y-71943900D01*
G75*
G02*
X73935000Y-71994700I-50800J0D01*
G01*
X73385000Y-71994700D01*
G75*
G02*
X73334200Y-71943900I0J50800D01*
G01*
X73334200Y-70743900D01*
G75*
G02*
X73385000Y-70693100I50800J0D01*
G01*
X73935000Y-70693100D01*
G75*
G02*
X73985800Y-70743900I0J-50800D01*
G01*
G37*
G36*
G01*
X74935800Y-70743900D02*
X74935800Y-71943900D01*
G75*
G02*
X74885000Y-71994700I-50800J0D01*
G01*
X74335000Y-71994700D01*
G75*
G02*
X74284200Y-71943900I0J50800D01*
G01*
X74284200Y-70743900D01*
G75*
G02*
X74335000Y-70693100I50800J0D01*
G01*
X74885000Y-70693100D01*
G75*
G02*
X74935800Y-70743900I0J-50800D01*
G01*
G37*
%TD*%
%TO.C,U3*%
G36*
G01*
X78293900Y-65791800D02*
X77093900Y-65791800D01*
G75*
G02*
X77043100Y-65741000I0J50800D01*
G01*
X77043100Y-65191000D01*
G75*
G02*
X77093900Y-65140200I50800J0D01*
G01*
X78293900Y-65140200D01*
G75*
G02*
X78344700Y-65191000I0J-50800D01*
G01*
X78344700Y-65741000D01*
G75*
G02*
X78293900Y-65791800I-50800J0D01*
G01*
G37*
G36*
G01*
X78293900Y-63891800D02*
X77093900Y-63891800D01*
G75*
G02*
X77043100Y-63841000I0J50800D01*
G01*
X77043100Y-63291000D01*
G75*
G02*
X77093900Y-63240200I50800J0D01*
G01*
X78293900Y-63240200D01*
G75*
G02*
X78344700Y-63291000I0J-50800D01*
G01*
X78344700Y-63841000D01*
G75*
G02*
X78293900Y-63891800I-50800J0D01*
G01*
G37*
G36*
G01*
X80894100Y-63891800D02*
X79694100Y-63891800D01*
G75*
G02*
X79643300Y-63841000I0J50800D01*
G01*
X79643300Y-63291000D01*
G75*
G02*
X79694100Y-63240200I50800J0D01*
G01*
X80894100Y-63240200D01*
G75*
G02*
X80944900Y-63291000I0J-50800D01*
G01*
X80944900Y-63841000D01*
G75*
G02*
X80894100Y-63891800I-50800J0D01*
G01*
G37*
G36*
G01*
X80894100Y-64841800D02*
X79694100Y-64841800D01*
G75*
G02*
X79643300Y-64791000I0J50800D01*
G01*
X79643300Y-64241000D01*
G75*
G02*
X79694100Y-64190200I50800J0D01*
G01*
X80894100Y-64190200D01*
G75*
G02*
X80944900Y-64241000I0J-50800D01*
G01*
X80944900Y-64791000D01*
G75*
G02*
X80894100Y-64841800I-50800J0D01*
G01*
G37*
G36*
G01*
X80894100Y-65791800D02*
X79694100Y-65791800D01*
G75*
G02*
X79643300Y-65741000I0J50800D01*
G01*
X79643300Y-65191000D01*
G75*
G02*
X79694100Y-65140200I50800J0D01*
G01*
X80894100Y-65140200D01*
G75*
G02*
X80944900Y-65191000I0J-50800D01*
G01*
X80944900Y-65741000D01*
G75*
G02*
X80894100Y-65791800I-50800J0D01*
G01*
G37*
%TD*%
%TO.C,SW101*%
G36*
G01*
X55869200Y-61930000D02*
X55869200Y-60930000D01*
G75*
G02*
X55920000Y-60879200I50800J0D01*
G01*
X56920000Y-60879200D01*
G75*
G02*
X56970800Y-60930000I0J-50800D01*
G01*
X56970800Y-61930000D01*
G75*
G02*
X56920000Y-61980800I-50800J0D01*
G01*
X55920000Y-61980800D01*
G75*
G02*
X55869200Y-61930000I0J50800D01*
G01*
G37*
G36*
G01*
X55869200Y-63530000D02*
X55869200Y-62530000D01*
G75*
G02*
X55920000Y-62479200I50800J0D01*
G01*
X56920000Y-62479200D01*
G75*
G02*
X56970800Y-62530000I0J-50800D01*
G01*
X56970800Y-63530000D01*
G75*
G02*
X56920000Y-63580800I-50800J0D01*
G01*
X55920000Y-63580800D01*
G75*
G02*
X55869200Y-63530000I0J50800D01*
G01*
G37*
G36*
G01*
X59869200Y-63530000D02*
X59869200Y-62530000D01*
G75*
G02*
X59920000Y-62479200I50800J0D01*
G01*
X60920000Y-62479200D01*
G75*
G02*
X60970800Y-62530000I0J-50800D01*
G01*
X60970800Y-63530000D01*
G75*
G02*
X60920000Y-63580800I-50800J0D01*
G01*
X59920000Y-63580800D01*
G75*
G02*
X59869200Y-63530000I0J50800D01*
G01*
G37*
G36*
G01*
X59869200Y-61930000D02*
X59869200Y-60930000D01*
G75*
G02*
X59920000Y-60879200I50800J0D01*
G01*
X60920000Y-60879200D01*
G75*
G02*
X60970800Y-60930000I0J-50800D01*
G01*
X60970800Y-61930000D01*
G75*
G02*
X60920000Y-61980800I-50800J0D01*
G01*
X59920000Y-61980800D01*
G75*
G02*
X59869200Y-61930000I0J50800D01*
G01*
G37*
%TD*%
%TO.C,R110*%
G36*
G01*
X44569000Y-63758800D02*
X43569000Y-63758800D01*
G75*
G02*
X43518200Y-63708000I0J50800D01*
G01*
X43518200Y-62608000D01*
G75*
G02*
X43569000Y-62557200I50800J0D01*
G01*
X44569000Y-62557200D01*
G75*
G02*
X44619800Y-62608000I0J-50800D01*
G01*
X44619800Y-63708000D01*
G75*
G02*
X44569000Y-63758800I-50800J0D01*
G01*
G37*
G36*
G01*
X44569000Y-65458800D02*
X43569000Y-65458800D01*
G75*
G02*
X43518200Y-65408000I0J50800D01*
G01*
X43518200Y-64308000D01*
G75*
G02*
X43569000Y-64257200I50800J0D01*
G01*
X44569000Y-64257200D01*
G75*
G02*
X44619800Y-64308000I0J-50800D01*
G01*
X44619800Y-65408000D01*
G75*
G02*
X44569000Y-65458800I-50800J0D01*
G01*
G37*
%TD*%
%TO.C,R109*%
G36*
G01*
X70089200Y-69080000D02*
X70089200Y-68080000D01*
G75*
G02*
X70140000Y-68029200I50800J0D01*
G01*
X71240000Y-68029200D01*
G75*
G02*
X71290800Y-68080000I0J-50800D01*
G01*
X71290800Y-69080000D01*
G75*
G02*
X71240000Y-69130800I-50800J0D01*
G01*
X70140000Y-69130800D01*
G75*
G02*
X70089200Y-69080000I0J50800D01*
G01*
G37*
G36*
G01*
X71789200Y-69080000D02*
X71789200Y-68080000D01*
G75*
G02*
X71840000Y-68029200I50800J0D01*
G01*
X72940000Y-68029200D01*
G75*
G02*
X72990800Y-68080000I0J-50800D01*
G01*
X72990800Y-69080000D01*
G75*
G02*
X72940000Y-69130800I-50800J0D01*
G01*
X71840000Y-69130800D01*
G75*
G02*
X71789200Y-69080000I0J50800D01*
G01*
G37*
%TD*%
%TO.C,R108*%
G36*
G01*
X78989200Y-67810000D02*
X78989200Y-66810000D01*
G75*
G02*
X79040000Y-66759200I50800J0D01*
G01*
X80140000Y-66759200D01*
G75*
G02*
X80190800Y-66810000I0J-50800D01*
G01*
X80190800Y-67810000D01*
G75*
G02*
X80140000Y-67860800I-50800J0D01*
G01*
X79040000Y-67860800D01*
G75*
G02*
X78989200Y-67810000I0J50800D01*
G01*
G37*
G36*
G01*
X77289200Y-67810000D02*
X77289200Y-66810000D01*
G75*
G02*
X77340000Y-66759200I50800J0D01*
G01*
X78440000Y-66759200D01*
G75*
G02*
X78490800Y-66810000I0J-50800D01*
G01*
X78490800Y-67810000D01*
G75*
G02*
X78440000Y-67860800I-50800J0D01*
G01*
X77340000Y-67860800D01*
G75*
G02*
X77289200Y-67810000I0J50800D01*
G01*
G37*
%TD*%
%TO.C,R107*%
G36*
G01*
X53255800Y-65460600D02*
X52255800Y-65460600D01*
G75*
G02*
X52205000Y-65409800I0J50800D01*
G01*
X52205000Y-64309800D01*
G75*
G02*
X52255800Y-64259000I50800J0D01*
G01*
X53255800Y-64259000D01*
G75*
G02*
X53306600Y-64309800I0J-50800D01*
G01*
X53306600Y-65409800D01*
G75*
G02*
X53255800Y-65460600I-50800J0D01*
G01*
G37*
G36*
G01*
X53255800Y-67160600D02*
X52255800Y-67160600D01*
G75*
G02*
X52205000Y-67109800I0J50800D01*
G01*
X52205000Y-66009800D01*
G75*
G02*
X52255800Y-65959000I50800J0D01*
G01*
X53255800Y-65959000D01*
G75*
G02*
X53306600Y-66009800I0J-50800D01*
G01*
X53306600Y-67109800D01*
G75*
G02*
X53255800Y-67160600I-50800J0D01*
G01*
G37*
%TD*%
%TO.C,R105*%
G36*
G01*
X64524000Y-68829200D02*
X65524000Y-68829200D01*
G75*
G02*
X65574800Y-68880000I0J-50800D01*
G01*
X65574800Y-69980000D01*
G75*
G02*
X65524000Y-70030800I-50800J0D01*
G01*
X64524000Y-70030800D01*
G75*
G02*
X64473200Y-69980000I0J50800D01*
G01*
X64473200Y-68880000D01*
G75*
G02*
X64524000Y-68829200I50800J0D01*
G01*
G37*
G36*
G01*
X64524000Y-67129200D02*
X65524000Y-67129200D01*
G75*
G02*
X65574800Y-67180000I0J-50800D01*
G01*
X65574800Y-68280000D01*
G75*
G02*
X65524000Y-68330800I-50800J0D01*
G01*
X64524000Y-68330800D01*
G75*
G02*
X64473200Y-68280000I0J50800D01*
G01*
X64473200Y-67180000D01*
G75*
G02*
X64524000Y-67129200I50800J0D01*
G01*
G37*
%TD*%
%TO.C,R104*%
G36*
G01*
X66556000Y-68829200D02*
X67556000Y-68829200D01*
G75*
G02*
X67606800Y-68880000I0J-50800D01*
G01*
X67606800Y-69980000D01*
G75*
G02*
X67556000Y-70030800I-50800J0D01*
G01*
X66556000Y-70030800D01*
G75*
G02*
X66505200Y-69980000I0J50800D01*
G01*
X66505200Y-68880000D01*
G75*
G02*
X66556000Y-68829200I50800J0D01*
G01*
G37*
G36*
G01*
X66556000Y-67129200D02*
X67556000Y-67129200D01*
G75*
G02*
X67606800Y-67180000I0J-50800D01*
G01*
X67606800Y-68280000D01*
G75*
G02*
X67556000Y-68330800I-50800J0D01*
G01*
X66556000Y-68330800D01*
G75*
G02*
X66505200Y-68280000I0J50800D01*
G01*
X66505200Y-67180000D01*
G75*
G02*
X66556000Y-67129200I50800J0D01*
G01*
G37*
%TD*%
%TO.C,R101*%
G36*
G01*
X47236000Y-63758800D02*
X46236000Y-63758800D01*
G75*
G02*
X46185200Y-63708000I0J50800D01*
G01*
X46185200Y-62608000D01*
G75*
G02*
X46236000Y-62557200I50800J0D01*
G01*
X47236000Y-62557200D01*
G75*
G02*
X47286800Y-62608000I0J-50800D01*
G01*
X47286800Y-63708000D01*
G75*
G02*
X47236000Y-63758800I-50800J0D01*
G01*
G37*
G36*
G01*
X47236000Y-65458800D02*
X46236000Y-65458800D01*
G75*
G02*
X46185200Y-65408000I0J50800D01*
G01*
X46185200Y-64308000D01*
G75*
G02*
X46236000Y-64257200I50800J0D01*
G01*
X47236000Y-64257200D01*
G75*
G02*
X47286800Y-64308000I0J-50800D01*
G01*
X47286800Y-65408000D01*
G75*
G02*
X47236000Y-65458800I-50800J0D01*
G01*
G37*
%TD*%
%TO.C,L1*%
G36*
G01*
X51944000Y-61325200D02*
X53144000Y-61325200D01*
G75*
G02*
X53194800Y-61376000I0J-50800D01*
G01*
X53194800Y-62576000D01*
G75*
G02*
X53144000Y-62626800I-50800J0D01*
G01*
X51944000Y-62626800D01*
G75*
G02*
X51893200Y-62576000I0J50800D01*
G01*
X51893200Y-61376000D01*
G75*
G02*
X51944000Y-61325200I50800J0D01*
G01*
G37*
G36*
G01*
X54044000Y-61325200D02*
X55244000Y-61325200D01*
G75*
G02*
X55294800Y-61376000I0J-50800D01*
G01*
X55294800Y-62576000D01*
G75*
G02*
X55244000Y-62626800I-50800J0D01*
G01*
X54044000Y-62626800D01*
G75*
G02*
X53993200Y-62576000I0J50800D01*
G01*
X53993200Y-61376000D01*
G75*
G02*
X54044000Y-61325200I50800J0D01*
G01*
G37*
%TD*%
%TO.C,IC1*%
G36*
G01*
X61786000Y-76060800D02*
X57086000Y-76060800D01*
G75*
G02*
X57035200Y-76010000I0J50800D01*
G01*
X57035200Y-71310000D01*
G75*
G02*
X57086000Y-71259200I50800J0D01*
G01*
X61786000Y-71259200D01*
G75*
G02*
X61836800Y-71310000I0J-50800D01*
G01*
X61836800Y-76010000D01*
G75*
G02*
X61786000Y-76060800I-50800J0D01*
G01*
G37*
G36*
G01*
X62061000Y-77585800D02*
X61811000Y-77585800D01*
G75*
G02*
X61760200Y-77535000I0J50800D01*
G01*
X61760200Y-76735000D01*
G75*
G02*
X61811000Y-76684200I50800J0D01*
G01*
X62061000Y-76684200D01*
G75*
G02*
X62111800Y-76735000I0J-50800D01*
G01*
X62111800Y-77535000D01*
G75*
G02*
X62061000Y-77585800I-50800J0D01*
G01*
G37*
G36*
G01*
X61561000Y-77585800D02*
X61311000Y-77585800D01*
G75*
G02*
X61260200Y-77535000I0J50800D01*
G01*
X61260200Y-76735000D01*
G75*
G02*
X61311000Y-76684200I50800J0D01*
G01*
X61561000Y-76684200D01*
G75*
G02*
X61611800Y-76735000I0J-50800D01*
G01*
X61611800Y-77535000D01*
G75*
G02*
X61561000Y-77585800I-50800J0D01*
G01*
G37*
G36*
G01*
X61061000Y-77585800D02*
X60811000Y-77585800D01*
G75*
G02*
X60760200Y-77535000I0J50800D01*
G01*
X60760200Y-76735000D01*
G75*
G02*
X60811000Y-76684200I50800J0D01*
G01*
X61061000Y-76684200D01*
G75*
G02*
X61111800Y-76735000I0J-50800D01*
G01*
X61111800Y-77535000D01*
G75*
G02*
X61061000Y-77585800I-50800J0D01*
G01*
G37*
G36*
G01*
X60561000Y-77585800D02*
X60311000Y-77585800D01*
G75*
G02*
X60260200Y-77535000I0J50800D01*
G01*
X60260200Y-76735000D01*
G75*
G02*
X60311000Y-76684200I50800J0D01*
G01*
X60561000Y-76684200D01*
G75*
G02*
X60611800Y-76735000I0J-50800D01*
G01*
X60611800Y-77535000D01*
G75*
G02*
X60561000Y-77585800I-50800J0D01*
G01*
G37*
G36*
G01*
X60061000Y-77585800D02*
X59811000Y-77585800D01*
G75*
G02*
X59760200Y-77535000I0J50800D01*
G01*
X59760200Y-76735000D01*
G75*
G02*
X59811000Y-76684200I50800J0D01*
G01*
X60061000Y-76684200D01*
G75*
G02*
X60111800Y-76735000I0J-50800D01*
G01*
X60111800Y-77535000D01*
G75*
G02*
X60061000Y-77585800I-50800J0D01*
G01*
G37*
G36*
G01*
X59561000Y-77585800D02*
X59311000Y-77585800D01*
G75*
G02*
X59260200Y-77535000I0J50800D01*
G01*
X59260200Y-76735000D01*
G75*
G02*
X59311000Y-76684200I50800J0D01*
G01*
X59561000Y-76684200D01*
G75*
G02*
X59611800Y-76735000I0J-50800D01*
G01*
X59611800Y-77535000D01*
G75*
G02*
X59561000Y-77585800I-50800J0D01*
G01*
G37*
G36*
G01*
X59061000Y-77585800D02*
X58811000Y-77585800D01*
G75*
G02*
X58760200Y-77535000I0J50800D01*
G01*
X58760200Y-76735000D01*
G75*
G02*
X58811000Y-76684200I50800J0D01*
G01*
X59061000Y-76684200D01*
G75*
G02*
X59111800Y-76735000I0J-50800D01*
G01*
X59111800Y-77535000D01*
G75*
G02*
X59061000Y-77585800I-50800J0D01*
G01*
G37*
G36*
G01*
X58561000Y-77585800D02*
X58311000Y-77585800D01*
G75*
G02*
X58260200Y-77535000I0J50800D01*
G01*
X58260200Y-76735000D01*
G75*
G02*
X58311000Y-76684200I50800J0D01*
G01*
X58561000Y-76684200D01*
G75*
G02*
X58611800Y-76735000I0J-50800D01*
G01*
X58611800Y-77535000D01*
G75*
G02*
X58561000Y-77585800I-50800J0D01*
G01*
G37*
G36*
G01*
X58061000Y-77585800D02*
X57811000Y-77585800D01*
G75*
G02*
X57760200Y-77535000I0J50800D01*
G01*
X57760200Y-76735000D01*
G75*
G02*
X57811000Y-76684200I50800J0D01*
G01*
X58061000Y-76684200D01*
G75*
G02*
X58111800Y-76735000I0J-50800D01*
G01*
X58111800Y-77535000D01*
G75*
G02*
X58061000Y-77585800I-50800J0D01*
G01*
G37*
G36*
G01*
X57561000Y-77585800D02*
X57311000Y-77585800D01*
G75*
G02*
X57260200Y-77535000I0J50800D01*
G01*
X57260200Y-76735000D01*
G75*
G02*
X57311000Y-76684200I50800J0D01*
G01*
X57561000Y-76684200D01*
G75*
G02*
X57611800Y-76735000I0J-50800D01*
G01*
X57611800Y-77535000D01*
G75*
G02*
X57561000Y-77585800I-50800J0D01*
G01*
G37*
G36*
G01*
X57061000Y-77585800D02*
X56811000Y-77585800D01*
G75*
G02*
X56760200Y-77535000I0J50800D01*
G01*
X56760200Y-76735000D01*
G75*
G02*
X56811000Y-76684200I50800J0D01*
G01*
X57061000Y-76684200D01*
G75*
G02*
X57111800Y-76735000I0J-50800D01*
G01*
X57111800Y-77535000D01*
G75*
G02*
X57061000Y-77585800I-50800J0D01*
G01*
G37*
G36*
G01*
X55510200Y-76285000D02*
X55510200Y-76035000D01*
G75*
G02*
X55561000Y-75984200I50800J0D01*
G01*
X56361000Y-75984200D01*
G75*
G02*
X56411800Y-76035000I0J-50800D01*
G01*
X56411800Y-76285000D01*
G75*
G02*
X56361000Y-76335800I-50800J0D01*
G01*
X55561000Y-76335800D01*
G75*
G02*
X55510200Y-76285000I0J50800D01*
G01*
G37*
G36*
G01*
X55510200Y-75785000D02*
X55510200Y-75535000D01*
G75*
G02*
X55561000Y-75484200I50800J0D01*
G01*
X56361000Y-75484200D01*
G75*
G02*
X56411800Y-75535000I0J-50800D01*
G01*
X56411800Y-75785000D01*
G75*
G02*
X56361000Y-75835800I-50800J0D01*
G01*
X55561000Y-75835800D01*
G75*
G02*
X55510200Y-75785000I0J50800D01*
G01*
G37*
G36*
G01*
X55510200Y-75285000D02*
X55510200Y-75035000D01*
G75*
G02*
X55561000Y-74984200I50800J0D01*
G01*
X56361000Y-74984200D01*
G75*
G02*
X56411800Y-75035000I0J-50800D01*
G01*
X56411800Y-75285000D01*
G75*
G02*
X56361000Y-75335800I-50800J0D01*
G01*
X55561000Y-75335800D01*
G75*
G02*
X55510200Y-75285000I0J50800D01*
G01*
G37*
G36*
G01*
X55510200Y-74785000D02*
X55510200Y-74535000D01*
G75*
G02*
X55561000Y-74484200I50800J0D01*
G01*
X56361000Y-74484200D01*
G75*
G02*
X56411800Y-74535000I0J-50800D01*
G01*
X56411800Y-74785000D01*
G75*
G02*
X56361000Y-74835800I-50800J0D01*
G01*
X55561000Y-74835800D01*
G75*
G02*
X55510200Y-74785000I0J50800D01*
G01*
G37*
G36*
G01*
X55510200Y-74285000D02*
X55510200Y-74035000D01*
G75*
G02*
X55561000Y-73984200I50800J0D01*
G01*
X56361000Y-73984200D01*
G75*
G02*
X56411800Y-74035000I0J-50800D01*
G01*
X56411800Y-74285000D01*
G75*
G02*
X56361000Y-74335800I-50800J0D01*
G01*
X55561000Y-74335800D01*
G75*
G02*
X55510200Y-74285000I0J50800D01*
G01*
G37*
G36*
G01*
X55510200Y-73785000D02*
X55510200Y-73535000D01*
G75*
G02*
X55561000Y-73484200I50800J0D01*
G01*
X56361000Y-73484200D01*
G75*
G02*
X56411800Y-73535000I0J-50800D01*
G01*
X56411800Y-73785000D01*
G75*
G02*
X56361000Y-73835800I-50800J0D01*
G01*
X55561000Y-73835800D01*
G75*
G02*
X55510200Y-73785000I0J50800D01*
G01*
G37*
G36*
G01*
X55510200Y-73285000D02*
X55510200Y-73035000D01*
G75*
G02*
X55561000Y-72984200I50800J0D01*
G01*
X56361000Y-72984200D01*
G75*
G02*
X56411800Y-73035000I0J-50800D01*
G01*
X56411800Y-73285000D01*
G75*
G02*
X56361000Y-73335800I-50800J0D01*
G01*
X55561000Y-73335800D01*
G75*
G02*
X55510200Y-73285000I0J50800D01*
G01*
G37*
G36*
G01*
X55510200Y-72785000D02*
X55510200Y-72535000D01*
G75*
G02*
X55561000Y-72484200I50800J0D01*
G01*
X56361000Y-72484200D01*
G75*
G02*
X56411800Y-72535000I0J-50800D01*
G01*
X56411800Y-72785000D01*
G75*
G02*
X56361000Y-72835800I-50800J0D01*
G01*
X55561000Y-72835800D01*
G75*
G02*
X55510200Y-72785000I0J50800D01*
G01*
G37*
G36*
G01*
X55510200Y-72285000D02*
X55510200Y-72035000D01*
G75*
G02*
X55561000Y-71984200I50800J0D01*
G01*
X56361000Y-71984200D01*
G75*
G02*
X56411800Y-72035000I0J-50800D01*
G01*
X56411800Y-72285000D01*
G75*
G02*
X56361000Y-72335800I-50800J0D01*
G01*
X55561000Y-72335800D01*
G75*
G02*
X55510200Y-72285000I0J50800D01*
G01*
G37*
G36*
G01*
X55510200Y-71785000D02*
X55510200Y-71535000D01*
G75*
G02*
X55561000Y-71484200I50800J0D01*
G01*
X56361000Y-71484200D01*
G75*
G02*
X56411800Y-71535000I0J-50800D01*
G01*
X56411800Y-71785000D01*
G75*
G02*
X56361000Y-71835800I-50800J0D01*
G01*
X55561000Y-71835800D01*
G75*
G02*
X55510200Y-71785000I0J50800D01*
G01*
G37*
G36*
G01*
X55510200Y-71285000D02*
X55510200Y-71035000D01*
G75*
G02*
X55561000Y-70984200I50800J0D01*
G01*
X56361000Y-70984200D01*
G75*
G02*
X56411800Y-71035000I0J-50800D01*
G01*
X56411800Y-71285000D01*
G75*
G02*
X56361000Y-71335800I-50800J0D01*
G01*
X55561000Y-71335800D01*
G75*
G02*
X55510200Y-71285000I0J50800D01*
G01*
G37*
G36*
G01*
X56811000Y-69734200D02*
X57061000Y-69734200D01*
G75*
G02*
X57111800Y-69785000I0J-50800D01*
G01*
X57111800Y-70585000D01*
G75*
G02*
X57061000Y-70635800I-50800J0D01*
G01*
X56811000Y-70635800D01*
G75*
G02*
X56760200Y-70585000I0J50800D01*
G01*
X56760200Y-69785000D01*
G75*
G02*
X56811000Y-69734200I50800J0D01*
G01*
G37*
G36*
G01*
X57311000Y-69734200D02*
X57561000Y-69734200D01*
G75*
G02*
X57611800Y-69785000I0J-50800D01*
G01*
X57611800Y-70585000D01*
G75*
G02*
X57561000Y-70635800I-50800J0D01*
G01*
X57311000Y-70635800D01*
G75*
G02*
X57260200Y-70585000I0J50800D01*
G01*
X57260200Y-69785000D01*
G75*
G02*
X57311000Y-69734200I50800J0D01*
G01*
G37*
G36*
G01*
X57811000Y-69734200D02*
X58061000Y-69734200D01*
G75*
G02*
X58111800Y-69785000I0J-50800D01*
G01*
X58111800Y-70585000D01*
G75*
G02*
X58061000Y-70635800I-50800J0D01*
G01*
X57811000Y-70635800D01*
G75*
G02*
X57760200Y-70585000I0J50800D01*
G01*
X57760200Y-69785000D01*
G75*
G02*
X57811000Y-69734200I50800J0D01*
G01*
G37*
G36*
G01*
X58311000Y-69734200D02*
X58561000Y-69734200D01*
G75*
G02*
X58611800Y-69785000I0J-50800D01*
G01*
X58611800Y-70585000D01*
G75*
G02*
X58561000Y-70635800I-50800J0D01*
G01*
X58311000Y-70635800D01*
G75*
G02*
X58260200Y-70585000I0J50800D01*
G01*
X58260200Y-69785000D01*
G75*
G02*
X58311000Y-69734200I50800J0D01*
G01*
G37*
G36*
G01*
X58811000Y-69734200D02*
X59061000Y-69734200D01*
G75*
G02*
X59111800Y-69785000I0J-50800D01*
G01*
X59111800Y-70585000D01*
G75*
G02*
X59061000Y-70635800I-50800J0D01*
G01*
X58811000Y-70635800D01*
G75*
G02*
X58760200Y-70585000I0J50800D01*
G01*
X58760200Y-69785000D01*
G75*
G02*
X58811000Y-69734200I50800J0D01*
G01*
G37*
G36*
G01*
X59311000Y-69734200D02*
X59561000Y-69734200D01*
G75*
G02*
X59611800Y-69785000I0J-50800D01*
G01*
X59611800Y-70585000D01*
G75*
G02*
X59561000Y-70635800I-50800J0D01*
G01*
X59311000Y-70635800D01*
G75*
G02*
X59260200Y-70585000I0J50800D01*
G01*
X59260200Y-69785000D01*
G75*
G02*
X59311000Y-69734200I50800J0D01*
G01*
G37*
G36*
G01*
X59811000Y-69734200D02*
X60061000Y-69734200D01*
G75*
G02*
X60111800Y-69785000I0J-50800D01*
G01*
X60111800Y-70585000D01*
G75*
G02*
X60061000Y-70635800I-50800J0D01*
G01*
X59811000Y-70635800D01*
G75*
G02*
X59760200Y-70585000I0J50800D01*
G01*
X59760200Y-69785000D01*
G75*
G02*
X59811000Y-69734200I50800J0D01*
G01*
G37*
G36*
G01*
X60311000Y-69734200D02*
X60561000Y-69734200D01*
G75*
G02*
X60611800Y-69785000I0J-50800D01*
G01*
X60611800Y-70585000D01*
G75*
G02*
X60561000Y-70635800I-50800J0D01*
G01*
X60311000Y-70635800D01*
G75*
G02*
X60260200Y-70585000I0J50800D01*
G01*
X60260200Y-69785000D01*
G75*
G02*
X60311000Y-69734200I50800J0D01*
G01*
G37*
G36*
G01*
X60811000Y-69734200D02*
X61061000Y-69734200D01*
G75*
G02*
X61111800Y-69785000I0J-50800D01*
G01*
X61111800Y-70585000D01*
G75*
G02*
X61061000Y-70635800I-50800J0D01*
G01*
X60811000Y-70635800D01*
G75*
G02*
X60760200Y-70585000I0J50800D01*
G01*
X60760200Y-69785000D01*
G75*
G02*
X60811000Y-69734200I50800J0D01*
G01*
G37*
G36*
G01*
X61311000Y-69734200D02*
X61561000Y-69734200D01*
G75*
G02*
X61611800Y-69785000I0J-50800D01*
G01*
X61611800Y-70585000D01*
G75*
G02*
X61561000Y-70635800I-50800J0D01*
G01*
X61311000Y-70635800D01*
G75*
G02*
X61260200Y-70585000I0J50800D01*
G01*
X61260200Y-69785000D01*
G75*
G02*
X61311000Y-69734200I50800J0D01*
G01*
G37*
G36*
G01*
X61811000Y-69734200D02*
X62061000Y-69734200D01*
G75*
G02*
X62111800Y-69785000I0J-50800D01*
G01*
X62111800Y-70585000D01*
G75*
G02*
X62061000Y-70635800I-50800J0D01*
G01*
X61811000Y-70635800D01*
G75*
G02*
X61760200Y-70585000I0J50800D01*
G01*
X61760200Y-69785000D01*
G75*
G02*
X61811000Y-69734200I50800J0D01*
G01*
G37*
G36*
G01*
X63361800Y-71035000D02*
X63361800Y-71285000D01*
G75*
G02*
X63311000Y-71335800I-50800J0D01*
G01*
X62511000Y-71335800D01*
G75*
G02*
X62460200Y-71285000I0J50800D01*
G01*
X62460200Y-71035000D01*
G75*
G02*
X62511000Y-70984200I50800J0D01*
G01*
X63311000Y-70984200D01*
G75*
G02*
X63361800Y-71035000I0J-50800D01*
G01*
G37*
G36*
G01*
X63361800Y-71535000D02*
X63361800Y-71785000D01*
G75*
G02*
X63311000Y-71835800I-50800J0D01*
G01*
X62511000Y-71835800D01*
G75*
G02*
X62460200Y-71785000I0J50800D01*
G01*
X62460200Y-71535000D01*
G75*
G02*
X62511000Y-71484200I50800J0D01*
G01*
X63311000Y-71484200D01*
G75*
G02*
X63361800Y-71535000I0J-50800D01*
G01*
G37*
G36*
G01*
X63361800Y-72035000D02*
X63361800Y-72285000D01*
G75*
G02*
X63311000Y-72335800I-50800J0D01*
G01*
X62511000Y-72335800D01*
G75*
G02*
X62460200Y-72285000I0J50800D01*
G01*
X62460200Y-72035000D01*
G75*
G02*
X62511000Y-71984200I50800J0D01*
G01*
X63311000Y-71984200D01*
G75*
G02*
X63361800Y-72035000I0J-50800D01*
G01*
G37*
G36*
G01*
X63361800Y-72535000D02*
X63361800Y-72785000D01*
G75*
G02*
X63311000Y-72835800I-50800J0D01*
G01*
X62511000Y-72835800D01*
G75*
G02*
X62460200Y-72785000I0J50800D01*
G01*
X62460200Y-72535000D01*
G75*
G02*
X62511000Y-72484200I50800J0D01*
G01*
X63311000Y-72484200D01*
G75*
G02*
X63361800Y-72535000I0J-50800D01*
G01*
G37*
G36*
G01*
X63361800Y-73035000D02*
X63361800Y-73285000D01*
G75*
G02*
X63311000Y-73335800I-50800J0D01*
G01*
X62511000Y-73335800D01*
G75*
G02*
X62460200Y-73285000I0J50800D01*
G01*
X62460200Y-73035000D01*
G75*
G02*
X62511000Y-72984200I50800J0D01*
G01*
X63311000Y-72984200D01*
G75*
G02*
X63361800Y-73035000I0J-50800D01*
G01*
G37*
G36*
G01*
X63361800Y-73535000D02*
X63361800Y-73785000D01*
G75*
G02*
X63311000Y-73835800I-50800J0D01*
G01*
X62511000Y-73835800D01*
G75*
G02*
X62460200Y-73785000I0J50800D01*
G01*
X62460200Y-73535000D01*
G75*
G02*
X62511000Y-73484200I50800J0D01*
G01*
X63311000Y-73484200D01*
G75*
G02*
X63361800Y-73535000I0J-50800D01*
G01*
G37*
G36*
G01*
X63361800Y-74035000D02*
X63361800Y-74285000D01*
G75*
G02*
X63311000Y-74335800I-50800J0D01*
G01*
X62511000Y-74335800D01*
G75*
G02*
X62460200Y-74285000I0J50800D01*
G01*
X62460200Y-74035000D01*
G75*
G02*
X62511000Y-73984200I50800J0D01*
G01*
X63311000Y-73984200D01*
G75*
G02*
X63361800Y-74035000I0J-50800D01*
G01*
G37*
G36*
G01*
X63361800Y-74535000D02*
X63361800Y-74785000D01*
G75*
G02*
X63311000Y-74835800I-50800J0D01*
G01*
X62511000Y-74835800D01*
G75*
G02*
X62460200Y-74785000I0J50800D01*
G01*
X62460200Y-74535000D01*
G75*
G02*
X62511000Y-74484200I50800J0D01*
G01*
X63311000Y-74484200D01*
G75*
G02*
X63361800Y-74535000I0J-50800D01*
G01*
G37*
G36*
G01*
X63361800Y-75035000D02*
X63361800Y-75285000D01*
G75*
G02*
X63311000Y-75335800I-50800J0D01*
G01*
X62511000Y-75335800D01*
G75*
G02*
X62460200Y-75285000I0J50800D01*
G01*
X62460200Y-75035000D01*
G75*
G02*
X62511000Y-74984200I50800J0D01*
G01*
X63311000Y-74984200D01*
G75*
G02*
X63361800Y-75035000I0J-50800D01*
G01*
G37*
G36*
G01*
X63361800Y-75535000D02*
X63361800Y-75785000D01*
G75*
G02*
X63311000Y-75835800I-50800J0D01*
G01*
X62511000Y-75835800D01*
G75*
G02*
X62460200Y-75785000I0J50800D01*
G01*
X62460200Y-75535000D01*
G75*
G02*
X62511000Y-75484200I50800J0D01*
G01*
X63311000Y-75484200D01*
G75*
G02*
X63361800Y-75535000I0J-50800D01*
G01*
G37*
G36*
G01*
X63361800Y-76035000D02*
X63361800Y-76285000D01*
G75*
G02*
X63311000Y-76335800I-50800J0D01*
G01*
X62511000Y-76335800D01*
G75*
G02*
X62460200Y-76285000I0J50800D01*
G01*
X62460200Y-76035000D01*
G75*
G02*
X62511000Y-75984200I50800J0D01*
G01*
X63311000Y-75984200D01*
G75*
G02*
X63361800Y-76035000I0J-50800D01*
G01*
G37*
%TD*%
%TO.C,D5*%
G36*
G01*
X75426800Y-64252000D02*
X75426800Y-65652000D01*
G75*
G02*
X75376000Y-65702800I-50800J0D01*
G01*
X73976000Y-65702800D01*
G75*
G02*
X73925200Y-65652000I0J50800D01*
G01*
X73925200Y-64252000D01*
G75*
G02*
X73976000Y-64201200I50800J0D01*
G01*
X75376000Y-64201200D01*
G75*
G02*
X75426800Y-64252000I0J-50800D01*
G01*
G37*
G36*
G01*
X75426800Y-67952000D02*
X75426800Y-69352000D01*
G75*
G02*
X75376000Y-69402800I-50800J0D01*
G01*
X73976000Y-69402800D01*
G75*
G02*
X73925200Y-69352000I0J50800D01*
G01*
X73925200Y-67952000D01*
G75*
G02*
X73976000Y-67901200I50800J0D01*
G01*
X75376000Y-67901200D01*
G75*
G02*
X75426800Y-67952000I0J-50800D01*
G01*
G37*
%TD*%
%TO.C,D4*%
G36*
G01*
X44322000Y-61610800D02*
X43122000Y-61610800D01*
G75*
G02*
X43071200Y-61560000I0J50800D01*
G01*
X43071200Y-60360000D01*
G75*
G02*
X43122000Y-60309200I50800J0D01*
G01*
X44322000Y-60309200D01*
G75*
G02*
X44372800Y-60360000I0J-50800D01*
G01*
X44372800Y-61560000D01*
G75*
G02*
X44322000Y-61610800I-50800J0D01*
G01*
G37*
G36*
G01*
X42222000Y-61610800D02*
X41022000Y-61610800D01*
G75*
G02*
X40971200Y-61560000I0J50800D01*
G01*
X40971200Y-60360000D01*
G75*
G02*
X41022000Y-60309200I50800J0D01*
G01*
X42222000Y-60309200D01*
G75*
G02*
X42272800Y-60360000I0J-50800D01*
G01*
X42272800Y-61560000D01*
G75*
G02*
X42222000Y-61610800I-50800J0D01*
G01*
G37*
%TD*%
%TO.C,D3*%
G36*
G01*
X46102000Y-60309200D02*
X47302000Y-60309200D01*
G75*
G02*
X47352800Y-60360000I0J-50800D01*
G01*
X47352800Y-61560000D01*
G75*
G02*
X47302000Y-61610800I-50800J0D01*
G01*
X46102000Y-61610800D01*
G75*
G02*
X46051200Y-61560000I0J50800D01*
G01*
X46051200Y-60360000D01*
G75*
G02*
X46102000Y-60309200I50800J0D01*
G01*
G37*
G36*
G01*
X48202000Y-60309200D02*
X49402000Y-60309200D01*
G75*
G02*
X49452800Y-60360000I0J-50800D01*
G01*
X49452800Y-61560000D01*
G75*
G02*
X49402000Y-61610800I-50800J0D01*
G01*
X48202000Y-61610800D01*
G75*
G02*
X48151200Y-61560000I0J50800D01*
G01*
X48151200Y-60360000D01*
G75*
G02*
X48202000Y-60309200I50800J0D01*
G01*
G37*
%TD*%
%TO.C,CHG1*%
G36*
G01*
X83796000Y-61325200D02*
X84996000Y-61325200D01*
G75*
G02*
X85046800Y-61376000I0J-50800D01*
G01*
X85046800Y-62576000D01*
G75*
G02*
X84996000Y-62626800I-50800J0D01*
G01*
X83796000Y-62626800D01*
G75*
G02*
X83745200Y-62576000I0J50800D01*
G01*
X83745200Y-61376000D01*
G75*
G02*
X83796000Y-61325200I50800J0D01*
G01*
G37*
G36*
G01*
X81696000Y-61325200D02*
X82896000Y-61325200D01*
G75*
G02*
X82946800Y-61376000I0J-50800D01*
G01*
X82946800Y-62576000D01*
G75*
G02*
X82896000Y-62626800I-50800J0D01*
G01*
X81696000Y-62626800D01*
G75*
G02*
X81645200Y-62576000I0J50800D01*
G01*
X81645200Y-61376000D01*
G75*
G02*
X81696000Y-61325200I50800J0D01*
G01*
G37*
%TD*%
%TO.C,C14*%
G36*
G01*
X61424200Y-79240000D02*
X61424200Y-78240000D01*
G75*
G02*
X61475000Y-78189200I50800J0D01*
G01*
X62575000Y-78189200D01*
G75*
G02*
X62625800Y-78240000I0J-50800D01*
G01*
X62625800Y-79240000D01*
G75*
G02*
X62575000Y-79290800I-50800J0D01*
G01*
X61475000Y-79290800D01*
G75*
G02*
X61424200Y-79240000I0J50800D01*
G01*
G37*
G36*
G01*
X59724200Y-79240000D02*
X59724200Y-78240000D01*
G75*
G02*
X59775000Y-78189200I50800J0D01*
G01*
X60875000Y-78189200D01*
G75*
G02*
X60925800Y-78240000I0J-50800D01*
G01*
X60925800Y-79240000D01*
G75*
G02*
X60875000Y-79290800I-50800J0D01*
G01*
X59775000Y-79290800D01*
G75*
G02*
X59724200Y-79240000I0J50800D01*
G01*
G37*
%TD*%
%TO.C,C9*%
G36*
G01*
X65136000Y-74533200D02*
X66436000Y-74533200D01*
G75*
G02*
X66486800Y-74584000I0J-50800D01*
G01*
X66486800Y-75784000D01*
G75*
G02*
X66436000Y-75834800I-50800J0D01*
G01*
X65136000Y-75834800D01*
G75*
G02*
X65085200Y-75784000I0J50800D01*
G01*
X65085200Y-74584000D01*
G75*
G02*
X65136000Y-74533200I50800J0D01*
G01*
G37*
G36*
G01*
X65136000Y-72501200D02*
X66436000Y-72501200D01*
G75*
G02*
X66486800Y-72552000I0J-50800D01*
G01*
X66486800Y-73752000D01*
G75*
G02*
X66436000Y-73802800I-50800J0D01*
G01*
X65136000Y-73802800D01*
G75*
G02*
X65085200Y-73752000I0J50800D01*
G01*
X65085200Y-72552000D01*
G75*
G02*
X65136000Y-72501200I50800J0D01*
G01*
G37*
%TD*%
%TO.C,C8*%
G36*
G01*
X73410800Y-75450000D02*
X73410800Y-76950000D01*
G75*
G02*
X73360000Y-77000800I-50800J0D01*
G01*
X72060000Y-77000800D01*
G75*
G02*
X72009200Y-76950000I0J50800D01*
G01*
X72009200Y-75450000D01*
G75*
G02*
X72060000Y-75399200I50800J0D01*
G01*
X73360000Y-75399200D01*
G75*
G02*
X73410800Y-75450000I0J-50800D01*
G01*
G37*
G36*
G01*
X75310800Y-75450000D02*
X75310800Y-76950000D01*
G75*
G02*
X75260000Y-77000800I-50800J0D01*
G01*
X73960000Y-77000800D01*
G75*
G02*
X73909200Y-76950000I0J50800D01*
G01*
X73909200Y-75450000D01*
G75*
G02*
X73960000Y-75399200I50800J0D01*
G01*
X75260000Y-75399200D01*
G75*
G02*
X75310800Y-75450000I0J-50800D01*
G01*
G37*
%TD*%
%TO.C,C7*%
G36*
G01*
X56764200Y-79240000D02*
X56764200Y-78240000D01*
G75*
G02*
X56815000Y-78189200I50800J0D01*
G01*
X57915000Y-78189200D01*
G75*
G02*
X57965800Y-78240000I0J-50800D01*
G01*
X57965800Y-79240000D01*
G75*
G02*
X57915000Y-79290800I-50800J0D01*
G01*
X56815000Y-79290800D01*
G75*
G02*
X56764200Y-79240000I0J50800D01*
G01*
G37*
G36*
G01*
X55064200Y-79240000D02*
X55064200Y-78240000D01*
G75*
G02*
X55115000Y-78189200I50800J0D01*
G01*
X56215000Y-78189200D01*
G75*
G02*
X56265800Y-78240000I0J-50800D01*
G01*
X56265800Y-79240000D01*
G75*
G02*
X56215000Y-79290800I-50800J0D01*
G01*
X55115000Y-79290800D01*
G75*
G02*
X55064200Y-79240000I0J50800D01*
G01*
G37*
%TD*%
%TO.C,C6*%
G36*
G01*
X69779200Y-72378000D02*
X69779200Y-70878000D01*
G75*
G02*
X69830000Y-70827200I50800J0D01*
G01*
X71130000Y-70827200D01*
G75*
G02*
X71180800Y-70878000I0J-50800D01*
G01*
X71180800Y-72378000D01*
G75*
G02*
X71130000Y-72428800I-50800J0D01*
G01*
X69830000Y-72428800D01*
G75*
G02*
X69779200Y-72378000I0J50800D01*
G01*
G37*
G36*
G01*
X67879200Y-72378000D02*
X67879200Y-70878000D01*
G75*
G02*
X67930000Y-70827200I50800J0D01*
G01*
X69230000Y-70827200D01*
G75*
G02*
X69280800Y-70878000I0J-50800D01*
G01*
X69280800Y-72378000D01*
G75*
G02*
X69230000Y-72428800I-50800J0D01*
G01*
X67930000Y-72428800D01*
G75*
G02*
X67879200Y-72378000I0J50800D01*
G01*
G37*
%TD*%
%TO.C,C3*%
G36*
G01*
X80898800Y-60972000D02*
X80898800Y-62472000D01*
G75*
G02*
X80848000Y-62522800I-50800J0D01*
G01*
X79548000Y-62522800D01*
G75*
G02*
X79497200Y-62472000I0J50800D01*
G01*
X79497200Y-60972000D01*
G75*
G02*
X79548000Y-60921200I50800J0D01*
G01*
X80848000Y-60921200D01*
G75*
G02*
X80898800Y-60972000I0J-50800D01*
G01*
G37*
G36*
G01*
X78998800Y-60972000D02*
X78998800Y-62472000D01*
G75*
G02*
X78948000Y-62522800I-50800J0D01*
G01*
X77648000Y-62522800D01*
G75*
G02*
X77597200Y-62472000I0J50800D01*
G01*
X77597200Y-60972000D01*
G75*
G02*
X77648000Y-60921200I50800J0D01*
G01*
X78948000Y-60921200D01*
G75*
G02*
X78998800Y-60972000I0J-50800D01*
G01*
G37*
%TD*%
M02*
