M48
; DRILL file {KiCad 5.1.10} date Mon May  3 09:30:02 2021
; FORMAT={-:-/ absolute / inch / decimal}
; #@! TF.CreationDate,2021-05-03T09:30:02+02:00
; #@! TF.GenerationSoftware,Kicad,Pcbnew,5.1.10
; #@! TF.FileFunction,NonPlated,1,2,NPTH
FMAT,2
INCH
T1C0.0276
T2C0.0354
T3C0.1378
T4C0.1575
%
G90
G05
T1
X2.5732Y-2.475
X2.7268Y-2.475
T2
X1.6934Y-2.5548
T3
X1.3Y-3.95
X2.05Y-5.45
X4.3Y-3.95
X4.3Y-5.45
X5.775Y-3.95
X5.775Y-5.45
X8.025Y-5.45
X8.775Y-3.95
T4
X0.925Y-3.575
X0.925Y-4.325
X0.925Y-5.075
X1.475Y-5.825
X1.675Y-3.575
X1.675Y-4.325
X1.675Y-5.075
X2.425Y-3.575
X2.425Y-4.325
X2.425Y-5.075
X2.425Y-5.825
X3.175Y-3.575
X3.175Y-4.325
X3.175Y-5.075
X3.175Y-5.825
X3.925Y-3.575
X3.925Y-4.325
X3.925Y-5.075
X3.925Y-5.825
X4.675Y-3.575
X4.675Y-4.325
X4.675Y-5.075
X4.675Y-5.825
X5.4Y-3.575
X5.4Y-4.325
X5.4Y-5.075
X5.4Y-5.825
X6.15Y-3.575
X6.15Y-4.325
X6.15Y-5.075
X6.15Y-5.825
X6.9Y-3.575
X6.9Y-4.325
X6.9Y-5.075
X6.9Y-5.825
X7.65Y-3.575
X7.65Y-4.325
X7.65Y-5.075
X7.65Y-5.825
X8.4Y-3.575
X8.4Y-4.325
X8.4Y-5.075
X8.6Y-5.825
X9.15Y-3.575
X9.15Y-4.325
X9.15Y-5.075
T0
M30
