%TF.GenerationSoftware,KiCad,Pcbnew,5.1.10*%
%TF.CreationDate,2021-05-01T12:15:27+02:00*%
%TF.ProjectId,splitboard,73706c69-7462-46f6-9172-642e6b696361,rev?*%
%TF.SameCoordinates,Original*%
%TF.FileFunction,Legend,Bot*%
%TF.FilePolarity,Positive*%
%FSLAX46Y46*%
G04 Gerber Fmt 4.6, Leading zero omitted, Abs format (unit mm)*
G04 Created by KiCad (PCBNEW 5.1.10) date 2021-05-01 12:15:27*
%MOMM*%
%LPD*%
G01*
G04 APERTURE LIST*
%ADD10C,0.120000*%
%ADD11C,0.127000*%
%ADD12C,0.150000*%
%ADD13C,0.217170*%
%ADD14C,0.146304*%
%ADD15C,0.138988*%
G04 APERTURE END LIST*
D10*
%TO.C,TP2*%
X80659200Y-69799200D02*
G75*
G03*
X80659200Y-69799200I-700000J0D01*
G01*
%TO.C,TP1*%
X78424000Y-73660000D02*
G75*
G03*
X78424000Y-73660000I-700000J0D01*
G01*
D11*
%TO.C,U5*%
X40112000Y-78442000D02*
X40112000Y-77042000D01*
X40512000Y-78442000D02*
X40112000Y-78442000D01*
X50312000Y-78442000D02*
X49912000Y-78442000D01*
X50312000Y-77042000D02*
X50312000Y-78442000D01*
X50312000Y-66542000D02*
X50312000Y-69742000D01*
X40112000Y-60242000D02*
X40112000Y-64842000D01*
X50312000Y-60242000D02*
X40112000Y-60242000D01*
X50312000Y-64842000D02*
X50312000Y-60242000D01*
D10*
%TO.C,R55*%
X56165200Y-65184400D02*
X56165200Y-66184400D01*
X57525200Y-66184400D02*
X57525200Y-65184400D01*
%TO.C,R54*%
X54528000Y-66184400D02*
X54528000Y-65184400D01*
X53168000Y-65184400D02*
X53168000Y-66184400D01*
D11*
%TO.C,TP103*%
X35884000Y-74356000D02*
X38284000Y-74356000D01*
X35884000Y-72456000D02*
X35884000Y-74356000D01*
X38284000Y-72456000D02*
X35884000Y-72456000D01*
X38284000Y-74356000D02*
X38284000Y-72456000D01*
%TO.C,TP102*%
X35884000Y-72070000D02*
X38284000Y-72070000D01*
X35884000Y-70170000D02*
X35884000Y-72070000D01*
X38284000Y-70170000D02*
X35884000Y-70170000D01*
X38284000Y-72070000D02*
X38284000Y-70170000D01*
%TO.C,TP101*%
X35884000Y-69784000D02*
X38284000Y-69784000D01*
X35884000Y-67884000D02*
X35884000Y-69784000D01*
X38284000Y-67884000D02*
X35884000Y-67884000D01*
X38284000Y-69784000D02*
X38284000Y-67884000D01*
%TO.C,TP2*%
D12*
X81221104Y-70699580D02*
X80649676Y-70699580D01*
X80935390Y-71699580D02*
X80935390Y-70699580D01*
X80316342Y-71699580D02*
X80316342Y-70699580D01*
X79935390Y-70699580D01*
X79840152Y-70747200D01*
X79792533Y-70794819D01*
X79744914Y-70890057D01*
X79744914Y-71032914D01*
X79792533Y-71128152D01*
X79840152Y-71175771D01*
X79935390Y-71223390D01*
X80316342Y-71223390D01*
X79363961Y-70794819D02*
X79316342Y-70747200D01*
X79221104Y-70699580D01*
X78983009Y-70699580D01*
X78887771Y-70747200D01*
X78840152Y-70794819D01*
X78792533Y-70890057D01*
X78792533Y-70985295D01*
X78840152Y-71128152D01*
X79411580Y-71699580D01*
X78792533Y-71699580D01*
%TO.C,TP1*%
X78985904Y-74560380D02*
X78414476Y-74560380D01*
X78700190Y-75560380D02*
X78700190Y-74560380D01*
X78081142Y-75560380D02*
X78081142Y-74560380D01*
X77700190Y-74560380D01*
X77604952Y-74608000D01*
X77557333Y-74655619D01*
X77509714Y-74750857D01*
X77509714Y-74893714D01*
X77557333Y-74988952D01*
X77604952Y-75036571D01*
X77700190Y-75084190D01*
X78081142Y-75084190D01*
X76557333Y-75560380D02*
X77128761Y-75560380D01*
X76843047Y-75560380D02*
X76843047Y-74560380D01*
X76938285Y-74703238D01*
X77033523Y-74798476D01*
X77128761Y-74846095D01*
%TO.C,U5*%
D13*
X49649577Y-58750047D02*
X49649577Y-59726738D01*
X49592125Y-59841642D01*
X49534672Y-59899095D01*
X49419768Y-59956547D01*
X49189958Y-59956547D01*
X49075053Y-59899095D01*
X49017601Y-59841642D01*
X48960149Y-59726738D01*
X48960149Y-58750047D01*
X47811101Y-58750047D02*
X48385625Y-58750047D01*
X48443077Y-59324571D01*
X48385625Y-59267119D01*
X48270720Y-59209666D01*
X47983458Y-59209666D01*
X47868553Y-59267119D01*
X47811101Y-59324571D01*
X47753649Y-59439476D01*
X47753649Y-59726738D01*
X47811101Y-59841642D01*
X47868553Y-59899095D01*
X47983458Y-59956547D01*
X48270720Y-59956547D01*
X48385625Y-59899095D01*
X48443077Y-59841642D01*
%TO.C,R55*%
D12*
X58747580Y-65041542D02*
X58271390Y-64708209D01*
X58747580Y-64470114D02*
X57747580Y-64470114D01*
X57747580Y-64851066D01*
X57795200Y-64946304D01*
X57842819Y-64993923D01*
X57938057Y-65041542D01*
X58080914Y-65041542D01*
X58176152Y-64993923D01*
X58223771Y-64946304D01*
X58271390Y-64851066D01*
X58271390Y-64470114D01*
X57747580Y-65946304D02*
X57747580Y-65470114D01*
X58223771Y-65422495D01*
X58176152Y-65470114D01*
X58128533Y-65565352D01*
X58128533Y-65803447D01*
X58176152Y-65898685D01*
X58223771Y-65946304D01*
X58319009Y-65993923D01*
X58557104Y-65993923D01*
X58652342Y-65946304D01*
X58699961Y-65898685D01*
X58747580Y-65803447D01*
X58747580Y-65565352D01*
X58699961Y-65470114D01*
X58652342Y-65422495D01*
X57747580Y-66898685D02*
X57747580Y-66422495D01*
X58223771Y-66374876D01*
X58176152Y-66422495D01*
X58128533Y-66517733D01*
X58128533Y-66755828D01*
X58176152Y-66851066D01*
X58223771Y-66898685D01*
X58319009Y-66946304D01*
X58557104Y-66946304D01*
X58652342Y-66898685D01*
X58699961Y-66851066D01*
X58747580Y-66755828D01*
X58747580Y-66517733D01*
X58699961Y-66422495D01*
X58652342Y-66374876D01*
%TO.C,R54*%
X52850380Y-65041542D02*
X52374190Y-64708209D01*
X52850380Y-64470114D02*
X51850380Y-64470114D01*
X51850380Y-64851066D01*
X51898000Y-64946304D01*
X51945619Y-64993923D01*
X52040857Y-65041542D01*
X52183714Y-65041542D01*
X52278952Y-64993923D01*
X52326571Y-64946304D01*
X52374190Y-64851066D01*
X52374190Y-64470114D01*
X51850380Y-65946304D02*
X51850380Y-65470114D01*
X52326571Y-65422495D01*
X52278952Y-65470114D01*
X52231333Y-65565352D01*
X52231333Y-65803447D01*
X52278952Y-65898685D01*
X52326571Y-65946304D01*
X52421809Y-65993923D01*
X52659904Y-65993923D01*
X52755142Y-65946304D01*
X52802761Y-65898685D01*
X52850380Y-65803447D01*
X52850380Y-65565352D01*
X52802761Y-65470114D01*
X52755142Y-65422495D01*
X52183714Y-66851066D02*
X52850380Y-66851066D01*
X51802761Y-66612971D02*
X52517047Y-66374876D01*
X52517047Y-66993923D01*
%TO.C,TP103*%
D14*
X36275070Y-68717797D02*
X36275070Y-69159031D01*
X37047230Y-68938414D02*
X36275070Y-68938414D01*
X37047230Y-69416418D02*
X36275070Y-69416418D01*
X36275070Y-69710574D01*
X36311840Y-69784113D01*
X36348609Y-69820883D01*
X36422148Y-69857652D01*
X36532457Y-69857652D01*
X36605996Y-69820883D01*
X36642765Y-69784113D01*
X36679535Y-69710574D01*
X36679535Y-69416418D01*
X37047230Y-70593043D02*
X37047230Y-70151809D01*
X37047230Y-70372426D02*
X36275070Y-70372426D01*
X36385379Y-70298887D01*
X36458918Y-70225348D01*
X36495687Y-70151809D01*
X36275070Y-71071047D02*
X36275070Y-71144586D01*
X36311840Y-71218125D01*
X36348609Y-71254894D01*
X36422148Y-71291664D01*
X36569226Y-71328433D01*
X36753074Y-71328433D01*
X36900152Y-71291664D01*
X36973691Y-71254894D01*
X37010460Y-71218125D01*
X37047230Y-71144586D01*
X37047230Y-71071047D01*
X37010460Y-70997508D01*
X36973691Y-70960738D01*
X36900152Y-70923969D01*
X36753074Y-70887199D01*
X36569226Y-70887199D01*
X36422148Y-70923969D01*
X36348609Y-70960738D01*
X36311840Y-70997508D01*
X36275070Y-71071047D01*
X36275070Y-71585820D02*
X36275070Y-72063824D01*
X36569226Y-71806437D01*
X36569226Y-71916746D01*
X36605996Y-71990285D01*
X36642765Y-72027054D01*
X36716304Y-72063824D01*
X36900152Y-72063824D01*
X36973691Y-72027054D01*
X37010460Y-71990285D01*
X37047230Y-71916746D01*
X37047230Y-71696129D01*
X37010460Y-71622590D01*
X36973691Y-71585820D01*
%TO.C,TP102*%
X36275070Y-66431797D02*
X36275070Y-66873031D01*
X37047230Y-66652414D02*
X36275070Y-66652414D01*
X37047230Y-67130418D02*
X36275070Y-67130418D01*
X36275070Y-67424574D01*
X36311840Y-67498113D01*
X36348609Y-67534883D01*
X36422148Y-67571652D01*
X36532457Y-67571652D01*
X36605996Y-67534883D01*
X36642765Y-67498113D01*
X36679535Y-67424574D01*
X36679535Y-67130418D01*
X37047230Y-68307043D02*
X37047230Y-67865809D01*
X37047230Y-68086426D02*
X36275070Y-68086426D01*
X36385379Y-68012887D01*
X36458918Y-67939348D01*
X36495687Y-67865809D01*
X36275070Y-68785047D02*
X36275070Y-68858586D01*
X36311840Y-68932125D01*
X36348609Y-68968894D01*
X36422148Y-69005664D01*
X36569226Y-69042433D01*
X36753074Y-69042433D01*
X36900152Y-69005664D01*
X36973691Y-68968894D01*
X37010460Y-68932125D01*
X37047230Y-68858586D01*
X37047230Y-68785047D01*
X37010460Y-68711508D01*
X36973691Y-68674738D01*
X36900152Y-68637969D01*
X36753074Y-68601199D01*
X36569226Y-68601199D01*
X36422148Y-68637969D01*
X36348609Y-68674738D01*
X36311840Y-68711508D01*
X36275070Y-68785047D01*
X36348609Y-69336590D02*
X36311840Y-69373359D01*
X36275070Y-69446898D01*
X36275070Y-69630746D01*
X36311840Y-69704285D01*
X36348609Y-69741054D01*
X36422148Y-69777824D01*
X36495687Y-69777824D01*
X36605996Y-69741054D01*
X37047230Y-69299820D01*
X37047230Y-69777824D01*
%TO.C,TP101*%
X36275070Y-64145797D02*
X36275070Y-64587031D01*
X37047230Y-64366414D02*
X36275070Y-64366414D01*
X37047230Y-64844418D02*
X36275070Y-64844418D01*
X36275070Y-65138574D01*
X36311840Y-65212113D01*
X36348609Y-65248883D01*
X36422148Y-65285652D01*
X36532457Y-65285652D01*
X36605996Y-65248883D01*
X36642765Y-65212113D01*
X36679535Y-65138574D01*
X36679535Y-64844418D01*
X37047230Y-66021043D02*
X37047230Y-65579809D01*
X37047230Y-65800426D02*
X36275070Y-65800426D01*
X36385379Y-65726887D01*
X36458918Y-65653348D01*
X36495687Y-65579809D01*
X36275070Y-66499047D02*
X36275070Y-66572586D01*
X36311840Y-66646125D01*
X36348609Y-66682894D01*
X36422148Y-66719664D01*
X36569226Y-66756433D01*
X36753074Y-66756433D01*
X36900152Y-66719664D01*
X36973691Y-66682894D01*
X37010460Y-66646125D01*
X37047230Y-66572586D01*
X37047230Y-66499047D01*
X37010460Y-66425508D01*
X36973691Y-66388738D01*
X36900152Y-66351969D01*
X36753074Y-66315199D01*
X36569226Y-66315199D01*
X36422148Y-66351969D01*
X36348609Y-66388738D01*
X36311840Y-66425508D01*
X36275070Y-66499047D01*
X37047230Y-67491824D02*
X37047230Y-67050590D01*
X37047230Y-67271207D02*
X36275070Y-67271207D01*
X36385379Y-67197668D01*
X36458918Y-67124129D01*
X36495687Y-67050590D01*
%TO.C,R106*%
D15*
X75020230Y-61079424D02*
X74652535Y-60822037D01*
X75020230Y-60638189D02*
X74248070Y-60638189D01*
X74248070Y-60932346D01*
X74284840Y-61005885D01*
X74321609Y-61042654D01*
X74395148Y-61079424D01*
X74505457Y-61079424D01*
X74578996Y-61042654D01*
X74615765Y-61005885D01*
X74652535Y-60932346D01*
X74652535Y-60638189D01*
X75020230Y-61814814D02*
X75020230Y-61373580D01*
X75020230Y-61594197D02*
X74248070Y-61594197D01*
X74358379Y-61520658D01*
X74431918Y-61447119D01*
X74468687Y-61373580D01*
X74248070Y-62292818D02*
X74248070Y-62366357D01*
X74284840Y-62439896D01*
X74321609Y-62476666D01*
X74395148Y-62513435D01*
X74542226Y-62550205D01*
X74726074Y-62550205D01*
X74873152Y-62513435D01*
X74946691Y-62476666D01*
X74983460Y-62439896D01*
X75020230Y-62366357D01*
X75020230Y-62292818D01*
X74983460Y-62219279D01*
X74946691Y-62182509D01*
X74873152Y-62145740D01*
X74726074Y-62108970D01*
X74542226Y-62108970D01*
X74395148Y-62145740D01*
X74321609Y-62182509D01*
X74284840Y-62219279D01*
X74248070Y-62292818D01*
X74248070Y-63212056D02*
X74248070Y-63064978D01*
X74284840Y-62991439D01*
X74321609Y-62954669D01*
X74431918Y-62881130D01*
X74578996Y-62844361D01*
X74873152Y-62844361D01*
X74946691Y-62881130D01*
X74983460Y-62917900D01*
X75020230Y-62991439D01*
X75020230Y-63138517D01*
X74983460Y-63212056D01*
X74946691Y-63248826D01*
X74873152Y-63285595D01*
X74689304Y-63285595D01*
X74615765Y-63248826D01*
X74578996Y-63212056D01*
X74542226Y-63138517D01*
X74542226Y-62991439D01*
X74578996Y-62917900D01*
X74615765Y-62881130D01*
X74689304Y-62844361D01*
%TO.C,R103*%
X75230575Y-63844230D02*
X75487962Y-63476535D01*
X75671810Y-63844230D02*
X75671810Y-63072070D01*
X75377653Y-63072070D01*
X75304114Y-63108840D01*
X75267345Y-63145609D01*
X75230575Y-63219148D01*
X75230575Y-63329457D01*
X75267345Y-63402996D01*
X75304114Y-63439765D01*
X75377653Y-63476535D01*
X75671810Y-63476535D01*
X74495185Y-63844230D02*
X74936419Y-63844230D01*
X74715802Y-63844230D02*
X74715802Y-63072070D01*
X74789341Y-63182379D01*
X74862880Y-63255918D01*
X74936419Y-63292687D01*
X74017181Y-63072070D02*
X73943642Y-63072070D01*
X73870103Y-63108840D01*
X73833333Y-63145609D01*
X73796564Y-63219148D01*
X73759794Y-63366226D01*
X73759794Y-63550074D01*
X73796564Y-63697152D01*
X73833333Y-63770691D01*
X73870103Y-63807460D01*
X73943642Y-63844230D01*
X74017181Y-63844230D01*
X74090720Y-63807460D01*
X74127490Y-63770691D01*
X74164259Y-63697152D01*
X74201029Y-63550074D01*
X74201029Y-63366226D01*
X74164259Y-63219148D01*
X74127490Y-63145609D01*
X74090720Y-63108840D01*
X74017181Y-63072070D01*
X73502408Y-63072070D02*
X73024404Y-63072070D01*
X73281791Y-63366226D01*
X73171482Y-63366226D01*
X73097943Y-63402996D01*
X73061173Y-63439765D01*
X73024404Y-63513304D01*
X73024404Y-63697152D01*
X73061173Y-63770691D01*
X73097943Y-63807460D01*
X73171482Y-63844230D01*
X73392099Y-63844230D01*
X73465638Y-63807460D01*
X73502408Y-63770691D01*
%TO.C,R102*%
X83889591Y-62066230D02*
X84146978Y-61698535D01*
X84330826Y-62066230D02*
X84330826Y-61294070D01*
X84036669Y-61294070D01*
X83963130Y-61330840D01*
X83926361Y-61367609D01*
X83889591Y-61441148D01*
X83889591Y-61551457D01*
X83926361Y-61624996D01*
X83963130Y-61661765D01*
X84036669Y-61698535D01*
X84330826Y-61698535D01*
X83154201Y-62066230D02*
X83595435Y-62066230D01*
X83374818Y-62066230D02*
X83374818Y-61294070D01*
X83448357Y-61404379D01*
X83521896Y-61477918D01*
X83595435Y-61514687D01*
X82676197Y-61294070D02*
X82602658Y-61294070D01*
X82529119Y-61330840D01*
X82492349Y-61367609D01*
X82455580Y-61441148D01*
X82418810Y-61588226D01*
X82418810Y-61772074D01*
X82455580Y-61919152D01*
X82492349Y-61992691D01*
X82529119Y-62029460D01*
X82602658Y-62066230D01*
X82676197Y-62066230D01*
X82749736Y-62029460D01*
X82786506Y-61992691D01*
X82823275Y-61919152D01*
X82860045Y-61772074D01*
X82860045Y-61588226D01*
X82823275Y-61441148D01*
X82786506Y-61367609D01*
X82749736Y-61330840D01*
X82676197Y-61294070D01*
X82124654Y-61367609D02*
X82087885Y-61330840D01*
X82014346Y-61294070D01*
X81830498Y-61294070D01*
X81756959Y-61330840D01*
X81720189Y-61367609D01*
X81683420Y-61441148D01*
X81683420Y-61514687D01*
X81720189Y-61624996D01*
X82161424Y-62066230D01*
X81683420Y-62066230D01*
%TO.C,C4*%
X52467691Y-74719189D02*
X52504460Y-74682419D01*
X52541230Y-74572111D01*
X52541230Y-74498572D01*
X52504460Y-74388263D01*
X52430921Y-74314724D01*
X52357382Y-74277954D01*
X52210304Y-74241185D01*
X52099996Y-74241185D01*
X51952918Y-74277954D01*
X51879379Y-74314724D01*
X51805840Y-74388263D01*
X51769070Y-74498572D01*
X51769070Y-74572111D01*
X51805840Y-74682419D01*
X51842609Y-74719189D01*
X52026457Y-75381040D02*
X52541230Y-75381040D01*
X51732300Y-75197193D02*
X52283843Y-75013345D01*
X52283843Y-75491349D01*
%TD*%
M02*
