M48
; DRILL file {KiCad 5.1.10} date Mon May  3 09:30:02 2021
; FORMAT={-:-/ absolute / inch / decimal}
; #@! TF.CreationDate,2021-05-03T09:30:02+02:00
; #@! TF.GenerationSoftware,Kicad,Pcbnew,5.1.10
; #@! TF.FileFunction,Plated,1,2,PTH
FMAT,2
INCH
T1C0.0157
T2C0.0315
T3C0.0354
T4C0.0394
T5C0.0591
T6C0.0787
%
G90
G05
T1
X0.8Y-3.281
X0.885Y-3.25
X0.885Y-4.66
X0.97Y-5.315
X0.98Y-3.985
X0.98Y-4.525
X0.98Y-4.74
X0.982Y-3.282
X0.995Y-3.8
X1.13Y-4.63
X1.13Y-5.445
X1.165Y-2.695
X1.19Y-3.27
X1.21Y-5.295
X1.225Y-3.775
X1.27Y-4.525
X1.275Y-4.74
X1.28Y-5.57
X1.2803Y-2.8697
X1.3Y-3.245
X1.3302Y-2.8641
X1.36Y-3.12
X1.375Y-3.325
X1.395Y-4.625
X1.41Y-5.295
X1.48Y-3.365
X1.545Y-2.4
X1.575Y-3.055
X1.68Y-5.4
X1.685Y-4.67
X1.695Y-3.9
X1.7347Y-2.5527
X1.75Y-3.175
X1.765Y-4.545
X1.775Y-2.975
X1.775Y-4.75
X1.775Y-5.825
X1.785Y-5.285
X1.79Y-5.485
X1.8Y-3.225
X1.805Y-2.715
X1.84Y-2.5535
X1.845Y-3.805
X1.86Y-3.985
X1.925Y-2.4
X1.925Y-4.635
X2.05Y-4.76
X2.055Y-4.545
X2.075Y-3.825
X2.075Y-3.99
X2.08Y-2.71
X2.124Y-2.946
X2.125Y-3.385
X2.14Y-4.66
X2.145Y-2.395
X2.15Y-5.275
X2.156Y-2.876
X2.1605Y-2.9195
X2.166Y-2.774
X2.166Y-2.692
X2.175Y-3.1974
X2.195Y-5.81
X2.205Y-2.73
X2.21Y-3.91
X2.238Y-2.5427
X2.238Y-2.6293
X2.2585Y-3.1
X2.26Y-3.38
X2.275Y-5.475
X2.3Y-3.2276
X2.3034Y-3.0762
X2.3787Y-2.4815
X2.4Y-4.685
X2.4419Y-3.1
X2.45Y-5.42
X2.475Y-3.92
X2.5Y-3.0082
X2.505Y-4.55
X2.515Y-4.755
X2.525Y-2.848
X2.5408Y-2.9469
X2.56Y-2.7335
X2.56Y-2.79
X2.57Y-5.305
X2.59Y-5.51
X2.595Y-3.805
X2.595Y-3.985
X2.645Y-2.93
X2.67Y-2.71
X2.71Y-2.9105
X2.79Y-2.915
X2.805Y-2.76
X2.82Y-4.755
X2.83Y-4.555
X2.8403Y-2.5946
X2.845Y-5.3
X2.855Y-3.805
X2.855Y-5.505
X2.86Y-3.36
X2.86Y-3.99
X2.898Y-2.774
X2.915Y-4.665
X2.925Y-5.385
X2.95Y-3.895
X2.988Y-2.796
X3.02Y-3.355
X3.025Y-3.05
X3.07Y-2.42
X3.07Y-2.708
X3.1061Y-2.51
X3.135Y-2.65
X3.16Y-2.54
X3.165Y-5.44
X3.17Y-4.675
X3.24Y-2.5361
X3.245Y-3.91
X3.25Y-5.315
X3.255Y-5.535
X3.26Y-4.55
X3.275Y-4.755
X3.37Y-2.44
X3.385Y-3.785
X3.385Y-3.995
X3.535Y-5.52
X3.54Y-5.305
X3.595Y-4.545
X3.605Y-3.37
X3.605Y-4.75
X3.63Y-3.785
X3.64Y-3.985
X3.685Y-4.64
X3.69Y-5.415
X3.71Y-3.91
X3.745Y-3.37
X3.935Y-3.915
X3.935Y-4.675
X3.97Y-5.415
X4.035Y-4.54
X4.04Y-4.74
X4.05Y-3.8
X4.06Y-3.995
X4.065Y-5.29
X4.07Y-5.515
X4.385Y-4.54
X4.395Y-4.74
X4.4Y-5.29
X4.455Y-4.655
X4.675Y-5.525
X4.68Y-3.915
X4.7Y-5.28
X4.71Y-3.86
X4.71Y-3.915
X4.715Y-4.725
X4.725Y-4.55
X4.74Y-3.885
X4.74Y-3.915
X4.825Y-5.41
X5.19Y-3.185
X5.195Y-2.905
X5.195Y-3.025
X5.29Y-5.445
X5.32Y-2.96
X5.355Y-3.08
X5.365Y-3.935
X5.4Y-4.66
X5.43Y-2.64
X5.435Y-5.31
X5.49Y-3.805
X5.49Y-5.48
X5.495Y-4.01
X5.51Y-4.53
X5.51Y-4.74
X5.525Y-3.325
X5.53Y-2.73
X5.535Y-2.54
X5.555Y-5.395
X5.565Y-2.94
X5.57Y-5.77
X5.62Y-2.64
X5.63Y-2.54
X5.65Y-5.3
X5.73Y-2.73
X5.74Y-2.54
X5.785Y-4.54
X5.79Y-4.755
X5.805Y-2.64
X5.825Y-3.325
X5.86Y-2.54
X5.89Y-4.645
X5.895Y-5.305
X5.915Y-2.73
X5.98Y-2.54
X5.985Y-2.64
X6.115Y-2.54
X6.14Y-4.68
X6.14Y-5.435
X6.16Y-3.925
X6.215Y-3.225
X6.2222Y-3.0778
X6.225Y-3.3
X6.235Y-4.555
X6.235Y-4.74
X6.245Y-3.79
X6.245Y-5.52
X6.25Y-3.05
X6.25Y-5.32
X6.255Y-4.025
X6.39Y-5.42
X6.45Y-3.15
X6.465Y-2.77
X6.475Y-5.315
X6.5Y-5.505
X6.52Y-4.765
X6.525Y-3.15
X6.545Y-3.05
X6.545Y-4.56
X6.59Y-3.795
X6.59Y-4.015
X6.59Y-5.415
X6.63Y-4.695
X6.64Y-2.635
X6.64Y-2.885
X6.645Y-5.305
X6.67Y-3.905
X6.67Y-5.51
X6.81Y-2.77
X6.88Y-4.675
X6.91Y-5.415
X6.95Y-2.635
X6.95Y-2.88
X6.955Y-3.92
X6.97Y-4.56
X6.97Y-4.755
X6.975Y-3.275
X7.03Y-5.5
X7.04Y-5.315
X7.045Y-3.795
X7.065Y-4.02
X7.15Y-2.77
X7.26Y-2.63
X7.265Y-2.9
X7.27Y-4.02
X7.29Y-4.56
X7.29Y-4.77
X7.295Y-5.5
X7.3Y-5.31
X7.305Y-3.795
X7.32Y-3.325
X7.385Y-3.92
X7.395Y-4.655
X7.42Y-5.42
X7.465Y-3.325
X7.47Y-2.63
X7.48Y-2.77
X7.485Y-2.89
X7.605Y-5.43
X7.665Y-4.675
X7.705Y-3.915
X7.72Y-5.325
X7.72Y-5.505
X7.775Y-4.56
X7.775Y-4.765
X7.83Y-3.81
X7.835Y-4.0
X8.035Y-3.305
X8.075Y-3.81
X8.085Y-4.565
X8.085Y-4.775
X8.09Y-4.005
X8.155Y-4.66
X8.18Y-3.92
X8.23Y-3.305
X8.41Y-5.435
X8.425Y-3.895
X8.46Y-4.675
X8.525Y-5.295
X8.535Y-3.8
X8.54Y-4.565
X8.54Y-5.5
X8.545Y-4.755
X8.55Y-4.0
X8.675Y-3.75
X8.705Y-3.285
X8.8Y-4.565
X8.8Y-4.735
X8.815Y-5.285
X8.825Y-5.52
X8.88Y-4.65
X8.91Y-3.795
X8.935Y-3.925
X8.935Y-4.1
X8.94Y-5.41
X8.985Y-3.28
X9.08Y-5.4
X9.135Y-4.655
X9.145Y-3.995
X9.18Y-3.8
X9.185Y-5.29
X9.21Y-4.765
X9.245Y-4.55
X9.27Y-3.895
T2
X2.5201Y-2.5104
X2.7799Y-2.5104
T3
X0.875Y-3.375
X0.875Y-4.125
X0.875Y-4.875
X0.975Y-3.375
X0.975Y-4.125
X0.975Y-4.875
X1.425Y-5.625
X1.525Y-5.625
X1.625Y-3.375
X1.625Y-4.125
X1.625Y-4.875
X1.725Y-3.375
X1.725Y-4.125
X1.725Y-4.875
X2.375Y-3.375
X2.375Y-4.125
X2.375Y-4.875
X2.375Y-5.625
X2.475Y-3.375
X2.475Y-4.125
X2.475Y-4.875
X2.475Y-5.625
X2.5083Y-2.4002
X2.7917Y-2.4002
X3.125Y-3.375
X3.125Y-4.125
X3.125Y-4.875
X3.125Y-5.625
X3.225Y-3.375
X3.225Y-4.125
X3.225Y-4.875
X3.225Y-5.625
X3.875Y-3.375
X3.875Y-4.125
X3.875Y-4.875
X3.875Y-5.625
X3.975Y-3.375
X3.975Y-4.125
X3.975Y-4.875
X3.975Y-5.625
X4.625Y-3.375
X4.625Y-4.125
X4.625Y-4.875
X4.625Y-5.625
X4.725Y-3.375
X4.725Y-4.125
X4.725Y-4.875
X4.725Y-5.625
X5.35Y-3.375
X5.35Y-4.125
X5.35Y-4.875
X5.35Y-5.625
X5.45Y-3.375
X5.45Y-4.125
X5.45Y-4.875
X5.45Y-5.625
X6.1Y-3.375
X6.1Y-4.125
X6.1Y-4.875
X6.1Y-5.625
X6.2Y-3.375
X6.2Y-4.125
X6.2Y-4.875
X6.2Y-5.625
X6.85Y-3.375
X6.85Y-4.125
X6.85Y-4.875
X6.85Y-5.625
X6.95Y-3.375
X6.95Y-4.125
X6.95Y-4.875
X6.95Y-5.625
X7.6Y-3.375
X7.6Y-4.125
X7.6Y-4.875
X7.6Y-5.625
X7.7Y-3.375
X7.7Y-4.125
X7.7Y-4.875
X7.7Y-5.625
X8.35Y-3.375
X8.35Y-4.125
X8.35Y-4.875
X8.45Y-3.375
X8.45Y-4.125
X8.45Y-4.875
X8.55Y-5.625
X8.65Y-5.625
X9.1Y-3.375
X9.1Y-4.125
X9.1Y-4.875
X9.2Y-3.375
X9.2Y-4.125
X9.2Y-4.875
T4
X1.33Y-2.45
X1.33Y-2.55
X3.27Y-2.6475
X3.27Y-2.7475
X3.27Y-2.8475
X3.27Y-2.9475
X3.27Y-3.0475
X3.37Y-2.6475
X3.37Y-2.7475
X3.37Y-2.8475
X3.37Y-2.9475
X3.37Y-3.0475
X5.2Y-2.7
X5.2Y-2.8
X5.3Y-2.7
X5.3Y-2.8
X8.4Y-2.675
X8.4Y-2.7734
X8.4Y-2.8719
T5
X0.825Y-3.775
X0.825Y-4.525
X0.825Y-5.275
X1.075Y-3.675
X1.075Y-4.425
X1.075Y-5.175
X1.375Y-6.025
X1.575Y-3.775
X1.575Y-4.525
X1.575Y-5.275
X1.625Y-5.925
X1.825Y-3.675
X1.825Y-4.425
X1.825Y-5.175
X2.325Y-3.775
X2.325Y-4.525
X2.325Y-5.275
X2.325Y-6.025
X2.575Y-3.675
X2.575Y-4.425
X2.575Y-5.175
X2.575Y-5.925
X3.075Y-3.775
X3.075Y-4.525
X3.075Y-5.275
X3.075Y-6.025
X3.325Y-3.675
X3.325Y-4.425
X3.325Y-5.175
X3.325Y-5.925
X3.825Y-3.775
X3.825Y-4.525
X3.825Y-5.275
X3.825Y-6.025
X4.075Y-3.675
X4.075Y-4.425
X4.075Y-5.175
X4.075Y-5.925
X4.575Y-3.775
X4.575Y-4.525
X4.575Y-5.275
X4.575Y-6.025
X4.825Y-3.675
X4.825Y-4.425
X4.825Y-5.175
X4.825Y-5.925
X5.3Y-3.775
X5.3Y-4.525
X5.3Y-5.275
X5.3Y-6.025
X5.55Y-3.675
X5.55Y-4.425
X5.55Y-5.175
X5.55Y-5.925
X6.05Y-3.775
X6.05Y-4.525
X6.05Y-5.275
X6.05Y-6.025
X6.3Y-3.675
X6.3Y-4.425
X6.3Y-5.175
X6.3Y-5.925
X6.8Y-3.775
X6.8Y-4.525
X6.8Y-5.275
X6.8Y-6.025
X7.05Y-3.675
X7.05Y-4.425
X7.05Y-5.175
X7.05Y-5.925
X7.55Y-3.775
X7.55Y-4.525
X7.55Y-5.275
X7.55Y-6.025
X7.8Y-3.675
X7.8Y-4.425
X7.8Y-5.175
X7.8Y-5.925
X8.3Y-3.775
X8.3Y-4.525
X8.3Y-5.275
X8.5Y-6.025
X8.55Y-3.675
X8.55Y-4.425
X8.55Y-5.175
X8.75Y-5.925
X9.05Y-3.775
X9.05Y-4.525
X9.05Y-5.275
X9.3Y-3.675
X9.3Y-4.425
X9.3Y-5.175
T6
G00X8.6854Y-2.553
M15
G01X8.7051Y-2.553
M16
G05
G00X8.6854Y-2.9939
M15
G01X8.7051Y-2.9939
M16
G05
T0
M30
