%TF.GenerationSoftware,KiCad,Pcbnew,5.1.10*%
%TF.CreationDate,2021-05-01T12:15:27+02:00*%
%TF.ProjectId,splitboard,73706c69-7462-46f6-9172-642e6b696361,rev?*%
%TF.SameCoordinates,Original*%
%TF.FileFunction,Profile,NP*%
%FSLAX46Y46*%
G04 Gerber Fmt 4.6, Leading zero omitted, Abs format (unit mm)*
G04 Created by KiCad (PCBNEW 5.1.10) date 2021-05-01 12:15:27*
%MOMM*%
%LPD*%
G01*
G04 APERTURE LIST*
%TA.AperFunction,Profile*%
%ADD10C,0.050000*%
%TD*%
G04 APERTURE END LIST*
D10*
X125730000Y-83820000D02*
X125730000Y-115570000D01*
X130175000Y-115570000D02*
X130175000Y-83820000D01*
X130175000Y-115570000D02*
X125730000Y-115570000D01*
X125730000Y-119380000D02*
X130175000Y-119380000D01*
X125730000Y-154940000D02*
X130175000Y-154940000D01*
X125730000Y-119380000D02*
X125730000Y-151765000D01*
X130175000Y-83820000D02*
X125730000Y-83820000D01*
X130175000Y-151765000D02*
X130175000Y-119380000D01*
X125730000Y-151765000D02*
X130175000Y-151765000D01*
X16510000Y-140970000D02*
X16510000Y-73660000D01*
X225425000Y-154940000D02*
X130175000Y-154940000D01*
X239395000Y-140970000D02*
X225425000Y-154940000D01*
X239395000Y-73660000D02*
X239395000Y-140970000D01*
X225425000Y-59690000D02*
X239395000Y-73660000D01*
X130175000Y-59690000D02*
X225425000Y-59690000D01*
X130175000Y-80645000D02*
X125730000Y-80645000D01*
X130175000Y-59690000D02*
X130175000Y-80645000D01*
X87630000Y-80645000D02*
X125730000Y-80645000D01*
X87630000Y-59690000D02*
X87630000Y-80645000D01*
X30480000Y-59690000D02*
X87630000Y-59690000D01*
X16510000Y-73660000D02*
X30480000Y-59690000D01*
X30480000Y-154940000D02*
X125730000Y-154940000D01*
X16510000Y-140970000D02*
X30480000Y-154940000D01*
X53736666Y-138430000D02*
G75*
G03*
X53736666Y-138430000I-1666666J0D01*
G01*
X49570000Y-138430000D02*
X54570000Y-138430000D01*
X52070000Y-135930000D02*
X52070000Y-140930000D01*
X110886666Y-138430000D02*
G75*
G03*
X110886666Y-138430000I-1666666J0D01*
G01*
X106720000Y-138430000D02*
X111720000Y-138430000D01*
X109220000Y-135930000D02*
X109220000Y-140930000D01*
X110886666Y-100330000D02*
G75*
G03*
X110886666Y-100330000I-1666666J0D01*
G01*
X106720000Y-100330000D02*
X111720000Y-100330000D01*
X109220000Y-97830000D02*
X109220000Y-102830000D01*
X34686666Y-100330000D02*
G75*
G03*
X34686666Y-100330000I-1666666J0D01*
G01*
X30520000Y-100330000D02*
X35520000Y-100330000D01*
X33020000Y-97830000D02*
X33020000Y-102830000D01*
X148351666Y-100330000D02*
G75*
G03*
X148351666Y-100330000I-1666666J0D01*
G01*
X144185000Y-100330000D02*
X149185000Y-100330000D01*
X146685000Y-97830000D02*
X146685000Y-102830000D01*
X224551666Y-100330000D02*
G75*
G03*
X224551666Y-100330000I-1666666J0D01*
G01*
X220385000Y-100330000D02*
X225385000Y-100330000D01*
X222885000Y-97830000D02*
X222885000Y-102830000D01*
X205501666Y-138430000D02*
G75*
G03*
X205501666Y-138430000I-1666666J0D01*
G01*
X201335000Y-138430000D02*
X206335000Y-138430000D01*
X203835000Y-135930000D02*
X203835000Y-140930000D01*
X148351666Y-138430000D02*
G75*
G03*
X148351666Y-138430000I-1666666J0D01*
G01*
X144185000Y-138430000D02*
X149185000Y-138430000D01*
X146685000Y-135930000D02*
X146685000Y-140930000D01*
%TO.C,X3*%
X64160000Y-60665000D02*
X64160000Y-61265000D01*
X63260000Y-61265000D02*
X63260000Y-60665000D01*
X71360000Y-60715000D02*
X71360000Y-61265000D01*
X70810000Y-60315000D02*
X71010000Y-60315000D01*
X70460000Y-61265000D02*
X70460000Y-60715000D01*
X71010000Y-61615000D02*
X70810000Y-61615000D01*
X63710000Y-61615000D02*
G75*
G03*
X64160000Y-61265000I50000J400000D01*
G01*
X63260000Y-61265000D02*
G75*
G03*
X63710000Y-61615000I400000J50000D01*
G01*
X64160000Y-60665000D02*
G75*
G03*
X63710000Y-60315000I-400000J-50000D01*
G01*
X63710000Y-60315000D02*
G75*
G03*
X63260000Y-60665000I-50000J-400000D01*
G01*
X71360000Y-60715000D02*
G75*
G03*
X71010000Y-60315000I-375000J25000D01*
G01*
X70810000Y-60315000D02*
G75*
G03*
X70460000Y-60715000I25000J-375000D01*
G01*
X70460000Y-61265000D02*
G75*
G03*
X70810000Y-61615000I350000J0D01*
G01*
X71010000Y-61615000D02*
G75*
G03*
X71360000Y-61265000I0J350000D01*
G01*
%TD*%
M02*
